<svg xmlns="http://www.w3.org/2000/svg" viewBox="27.438 24.109 169.934 18.066" preserveAspectRatio="xMidYMid meet"><path fill="#000000" d="M 94.070312 33.992188 L 90.785156 33.992188 L 90.785156 39.035156 L 94.523438 39.035156 C 96.902344 39.035156 97.976562 38.128906 97.976562 36.570312 C 97.976562 34.757812 96.675781 33.992188 94.070312 33.992188 M 93.898438 27.082031 L 90.757812 27.082031 L 90.757812 31.21875 L 93.816406 31.21875 C 95.742188 31.21875 97.042969 30.539062 97.042969 29.066406 C 97.042969 27.847656 96.136719 27.082031 93.898438 27.082031 M 95.371094 41.949219 L 87.019531 41.949219 L 87.019531 24.109375 L 94.210938 24.109375 C 98.65625 24.109375 100.867188 25.640625 100.867188 28.472656 C 100.867188 30.992188 99.023438 32.210938 97.949219 32.464844 C 99.335938 32.691406 101.855469 33.910156 101.855469 37.222656 C 101.800781 40.109375 99.734375 41.949219 95.371094 41.949219 M 107.152344 41.949219 L 107.152344 24.109375 L 110.976562 24.109375 L 110.976562 38.722656 L 119.386719 38.722656 L 119.386719 41.949219 M 124.3125 41.949219 L 124.3125 24.109375 L 136.859375 24.109375 L 136.859375 27.339844 L 128.136719 27.339844 L 128.136719 31.472656 L 135.242188 31.472656 L 135.242188 34.617188 L 128.136719 34.617188 L 128.136719 38.75 L 137.027344 38.75 L 137.027344 41.980469 M 190.09375 27.082031 L 186.1875 27.082031 L 186.1875 31.984375 L 190.011719 31.984375 C 192.078125 31.984375 193.523438 31.445312 193.523438 29.519531 C 193.523438 27.59375 192.078125 27.082031 190.09375 27.082031 M 189.160156 35.070312 L 186.1875 35.070312 L 186.1875 41.949219 L 182.363281 41.949219 L 182.363281 24.109375 L 190.265625 24.109375 C 194.9375 24.109375 197.371094 25.78125 197.371094 29.546875 C 197.371094 32.519531 195.84375 34.21875 192.925781 34.84375 L 197.371094 41.949219 L 193.238281 41.949219 Z M 53.488281 29.320312 L 51.335938 34.84375 L 55.640625 34.84375 Z M 51.960938 24.195312 L 55.1875 24.195312 L 62.835938 41.894531 L 58.472656 41.894531 L 56.945312 38.15625 L 50.0625 38.15625 L 48.621094 41.894531 L 44.285156 41.894531 Z M 168.886719 29.320312 L 166.734375 34.84375 L 171.007812 34.84375 Z M 167.414062 24.195312 L 170.640625 24.195312 L 178.285156 41.894531 L 173.925781 41.894531 L 172.398438 38.15625 L 165.515625 38.15625 L 164.070312 41.894531 L 159.796875 41.894531 C 159.765625 41.867188 167.414062 24.195312 167.414062 24.195312 Z M 34.488281 33.992188 L 31.289062 33.992188 L 31.289062 39.035156 L 35.027344 39.035156 C 37.40625 39.035156 38.480469 38.128906 38.480469 36.570312 C 38.480469 34.757812 37.09375 33.992188 34.488281 33.992188 M 34.433594 27.082031 L 31.289062 27.082031 L 31.289062 31.21875 L 34.347656 31.21875 C 36.273438 31.21875 37.574219 30.539062 37.574219 29.066406 C 37.492188 27.847656 36.554688 27.082031 34.433594 27.082031 M 35.792969 41.949219 L 27.4375 41.949219 L 27.4375 24.109375 L 34.628906 24.109375 C 39.078125 24.109375 41.285156 25.640625 41.285156 28.472656 C 41.285156 30.992188 39.445312 32.210938 38.367188 32.464844 C 39.757812 32.691406 42.277344 33.910156 42.277344 37.222656 C 42.21875 40.109375 40.238281 41.949219 35.792969 41.949219 M 80.730469 34.757812 C 80.730469 38.890625 79.289062 42.175781 73.371094 42.175781 C 67.394531 42.175781 65.949219 38.890625 65.949219 34.757812 L 65.949219 24.109375 L 69.800781 24.109375 L 69.800781 35.070312 C 69.800781 37.222656 70.425781 38.976562 73.398438 38.976562 C 76.371094 38.976562 76.992188 37.222656 76.992188 35.070312 L 76.992188 24.109375 L 80.816406 24.109375 L 80.816406 34.757812 Z M 149.65625 33.992188 L 146.371094 33.992188 L 146.371094 39.035156 L 150.109375 39.035156 C 152.488281 39.035156 153.566406 38.128906 153.566406 36.570312 C 153.648438 34.757812 152.261719 33.992188 149.65625 33.992188 M 149.574219 27.082031 L 146.429688 27.082031 L 146.429688 31.21875 L 149.488281 31.21875 C 151.414062 31.21875 152.714844 30.539062 152.714844 29.066406 C 152.628906 27.847656 151.726562 27.082031 149.574219 27.082031 M 150.960938 41.949219 L 142.605469 41.949219 L 142.605469 24.109375 L 149.800781 24.109375 C 154.246094 24.109375 156.453125 25.640625 156.453125 28.472656 C 156.453125 30.992188 154.613281 32.210938 153.535156 32.464844 C 154.925781 32.691406 157.445312 33.910156 157.445312 37.222656 C 157.386719 40.109375 155.40625 41.949219 150.960938 41.949219 " fill-opacity="1" fill-rule="nonzero"/></svg>