<svg xmlns="http://www.w3.org/2000/svg" viewBox="16.637 21.238 191.504 24.527" preserveAspectRatio="xMidYMid meet"><defs><clipPath id="7a83ee2873"><path d="M 16.636719 21.238281 L 208.140625 21.238281 L 208.140625 45.765625 L 16.636719 45.765625 Z M 16.636719 21.238281 " clip-rule="nonzero"/></clipPath><clipPath id="79c549c4fb"><path d="M 174.902344 21.238281 C 176.898438 21.238281 178.972656 22.101562 180.199219 23 L 179.929688 24.175781 C 178.394531 23.15625 176.476562 22.453125 174.902344 22.453125 C 171.640625 22.453125 169.71875 24.332031 169.71875 26.917969 C 169.71875 29.109375 170.757812 31.027344 174.75 32.164062 C 179.011719 33.375 181.429688 35.527344 181.429688 39.25 C 181.429688 43.59375 177.859375 45.746094 174.519531 45.746094 C 171.449219 45.746094 169.03125 44.53125 167.761719 43.320312 L 167.996094 42.027344 C 169.527344 43.359375 171.832031 44.53125 174.519531 44.53125 C 177.589844 44.53125 180.085938 42.535156 180.085938 39.367188 C 180.085938 36.585938 178.78125 34.785156 174.136719 33.414062 C 170.414062 32.320312 168.378906 30.046875 168.378906 26.917969 C 168.378906 23.785156 170.949219 21.238281 174.902344 21.238281 Z M 22.972656 21.75 C 31.417969 21.75 34.910156 27.074219 34.910156 33.535156 C 34.910156 39.992188 31.417969 45.238281 22.972656 45.238281 L 16.636719 45.238281 L 16.636719 21.75 Z M 128.914062 21.75 L 128.914062 22.960938 L 117.976562 22.960938 L 117.976562 32.28125 L 126.996094 32.28125 L 126.996094 33.496094 L 117.972656 33.496094 L 117.972656 45.238281 L 116.667969 45.238281 L 116.667969 21.746094 L 128.914062 21.746094 Z M 49.941406 21.75 L 49.941406 22.960938 L 39 22.960938 L 39 32.277344 L 48.019531 32.277344 L 48.019531 33.496094 L 39 33.496094 L 39 44.023438 L 49.941406 44.023438 L 49.941406 45.238281 L 37.695312 45.238281 L 37.695312 21.746094 L 49.941406 21.746094 Z M 59.441406 21.75 C 64.125 21.75 66.160156 24.960938 66.160156 28.480469 C 66.160156 31.730469 64.433594 34.628906 60.59375 35.097656 L 67.582031 45.238281 L 66.046875 45.238281 L 59.214844 35.175781 L 54.03125 35.175781 L 54.03125 45.238281 L 52.726562 45.238281 L 52.726562 21.75 L 59.445312 21.75 Z M 71.023438 21.75 L 80.582031 43.476562 L 90.179688 21.75 L 91.558594 21.75 L 91.558594 45.238281 L 90.292969 45.238281 L 90.292969 24.214844 C 90.292969 24.214844 88.875 27.503906 88.527344 28.285156 L 81.082031 45.238281 L 80.046875 45.238281 L 72.601562 28.285156 C 72.449219 27.945312 72.148438 27.242188 71.839844 26.515625 L 71.695312 26.175781 C 71.273438 25.171875 70.871094 24.214844 70.871094 24.214844 L 70.871094 45.238281 L 69.640625 45.238281 L 69.640625 21.746094 L 71.023438 21.746094 Z M 104.671875 21.75 L 113.882812 45.238281 L 112.503906 45.238281 L 109.738281 38.230469 L 98.453125 38.230469 L 95.691406 45.238281 L 94.34375 45.238281 L 103.558594 21.75 Z M 133.003906 21.75 L 133.003906 44.023438 L 143.945312 44.023438 L 143.945312 45.238281 L 131.699219 45.238281 L 131.699219 21.746094 L 133.003906 21.746094 Z M 156.410156 21.75 L 165.625 45.238281 L 164.242188 45.238281 L 161.476562 38.230469 L 150.191406 38.230469 L 147.429688 45.238281 L 146.085938 45.238281 L 155.296875 21.75 Z M 185.519531 21.75 L 185.519531 32.242188 L 200.066406 32.242188 L 200.066406 21.75 L 201.371094 21.75 L 201.371094 45.238281 L 200.066406 45.238281 L 200.066406 33.457031 L 185.519531 33.457031 L 185.519531 45.238281 L 184.214844 45.238281 L 184.214844 21.746094 L 185.519531 21.746094 Z M 23.011719 23 L 17.941406 23 L 17.941406 43.984375 L 23.011719 43.984375 C 30.917969 43.984375 33.605469 39.050781 33.605469 33.53125 C 33.605469 27.972656 30.917969 23.003906 23.011719 23.003906 Z M 104.097656 23.667969 L 98.914062 37.015625 L 109.277344 37.015625 Z M 155.835938 23.667969 L 150.652344 37.015625 L 161.015625 37.015625 Z M 59.441406 22.960938 L 54.03125 22.960938 L 54.03125 33.964844 L 59.441406 33.964844 C 63.511719 33.964844 64.855469 31.222656 64.855469 28.480469 C 64.855469 25.78125 63.511719 22.960938 59.441406 22.960938 Z M 205.917969 21.75 C 207.144531 21.75 208.140625 22.765625 208.140625 24.019531 C 208.140625 25.269531 207.144531 26.285156 205.917969 26.285156 C 204.691406 26.285156 203.695312 25.269531 203.695312 24.015625 C 203.695312 22.765625 204.691406 21.75 205.917969 21.75 Z M 205.917969 22.074219 C 204.867188 22.074219 204.011719 22.945312 204.011719 24.015625 C 204.011719 25.085938 204.867188 25.957031 205.917969 25.957031 C 206.96875 25.957031 207.824219 25.085938 207.824219 24.015625 C 207.824219 22.945312 206.96875 22.074219 205.917969 22.074219 Z M 206.015625 22.875 C 206.476562 22.875 206.84375 23.125 206.84375 23.578125 C 206.84375 23.957031 206.601562 24.179688 206.296875 24.269531 L 206.921875 25.15625 L 206.476562 25.15625 L 205.914062 24.324219 L 205.375 24.324219 L 205.375 25.15625 L 205.019531 25.15625 L 205.019531 22.875 Z M 205.976562 23.203125 L 205.375 23.203125 L 205.375 24.023438 L 205.976562 24.023438 C 206.296875 24.023438 206.476562 23.851562 206.476562 23.605469 C 206.476562 23.332031 206.285156 23.203125 205.976562 23.203125 Z M 205.976562 23.203125 " clip-rule="nonzero"/></clipPath></defs><g clip-path="url(#7a83ee2873)"><g clip-path="url(#79c549c4fb)"><path fill="#3a312f" d="M 16.636719 21.238281 L 208.140625 21.238281 L 208.140625 45.746094 L 16.636719 45.746094 Z M 16.636719 21.238281 " fill-opacity="1" fill-rule="nonzero"/></g></g></svg>