<svg xmlns="http://www.w3.org/2000/svg" viewBox="45.055 17.41 134.75 32.012" preserveAspectRatio="xMidYMid meet"><defs><clipPath id="ff9fd07499"><path d="M 131 17.410156 L 156 17.410156 L 156 37 L 131 37 Z M 131 17.410156 " clip-rule="nonzero"/></clipPath><clipPath id="6ee6e89289"><path d="M 70 17.410156 L 82 17.410156 L 82 37 L 70 37 Z M 70 17.410156 " clip-rule="nonzero"/></clipPath><clipPath id="9fe71ed3f4"><path d="M 45.054688 17.410156 L 66 17.410156 L 66 37 L 45.054688 37 Z M 45.054688 17.410156 " clip-rule="nonzero"/></clipPath><clipPath id="3fd1a8fe46"><path d="M 157 17.410156 L 179.804688 17.410156 L 179.804688 37 L 157 37 Z M 157 17.410156 " clip-rule="nonzero"/></clipPath><clipPath id="9843912d65"><path d="M 86 17.410156 L 106 17.410156 L 106 37 L 86 37 Z M 86 17.410156 " clip-rule="nonzero"/></clipPath><clipPath id="bc017a9254"><path d="M 108 17.410156 L 129 17.410156 L 129 37 L 108 37 Z M 108 17.410156 " clip-rule="nonzero"/></clipPath><clipPath id="f6370b5f5a"><path d="M 83 43 L 89 43 L 89 49.421875 L 83 49.421875 Z M 83 43 " clip-rule="nonzero"/></clipPath><clipPath id="1ddb6d3286"><path d="M 90 43 L 93 43 L 93 49.421875 L 90 49.421875 Z M 90 43 " clip-rule="nonzero"/></clipPath><clipPath id="520a9ea31f"><path d="M 94 43 L 100 43 L 100 49.421875 L 94 49.421875 Z M 94 43 " clip-rule="nonzero"/></clipPath><clipPath id="85fd01de21"><path d="M 101 43 L 107 43 L 107 49.421875 L 101 49.421875 Z M 101 43 " clip-rule="nonzero"/></clipPath><clipPath id="9993c8b98e"><path d="M 108 43 L 113 43 L 113 49.421875 L 108 49.421875 Z M 108 43 " clip-rule="nonzero"/></clipPath><clipPath id="89d53d385e"><path d="M 134 43 L 139 43 L 139 49.421875 L 134 49.421875 Z M 134 43 " clip-rule="nonzero"/></clipPath><clipPath id="c26e72ebb6"><path d="M 128 43 L 134 43 L 134 49.421875 L 128 49.421875 Z M 128 43 " clip-rule="nonzero"/></clipPath><clipPath id="c451edd953"><path d="M 123 43 L 128 43 L 128 49.421875 L 123 49.421875 Z M 123 43 " clip-rule="nonzero"/></clipPath><clipPath id="b3252acae8"><path d="M 118 43 L 122 43 L 122 49.421875 L 118 49.421875 Z M 118 43 " clip-rule="nonzero"/></clipPath></defs><g clip-path="url(#ff9fd07499)"><path fill="#0e0e0b" d="M 143.457031 34.84375 C 139.921875 34.84375 137.355469 31.835938 137.355469 27.011719 C 137.355469 22.191406 139.921875 19.183594 143.457031 19.183594 C 146.992188 19.183594 149.558594 22.191406 149.558594 27.011719 C 149.558594 31.835938 146.992188 34.84375 143.457031 34.84375 Z M 143.457031 17.410156 C 133.9375 17.410156 131.800781 23.117188 131.800781 27.011719 C 131.800781 30.949219 133.9375 36.617188 143.457031 36.617188 C 152.976562 36.617188 155.117188 30.949219 155.117188 27.011719 C 155.117188 23.117188 152.976562 17.410156 143.457031 17.410156 Z M 143.457031 17.410156 " fill-opacity="1" fill-rule="nonzero"/></g><g clip-path="url(#6ee6e89289)"><path fill="#0e0e0b" d="M 78.640625 21.460938 C 78.757812 20.300781 78.527344 18.992188 81.207031 18.757812 C 81.363281 18.757812 81.480469 18.605469 81.480469 18.488281 L 81.480469 18.105469 C 81.480469 18.027344 81.441406 17.949219 81.402344 17.910156 C 81.363281 17.871094 81.285156 17.835938 81.207031 17.835938 C 81.050781 17.835938 80.742188 17.871094 80.390625 17.871094 L 80.195312 17.871094 C 78.757812 17.988281 76.933594 18.140625 75.960938 18.140625 C 75.027344 18.140625 71.453125 17.871094 70.753906 17.835938 C 70.597656 17.835938 70.441406 17.949219 70.441406 18.105469 L 70.441406 18.488281 C 70.441406 18.644531 70.558594 18.757812 70.714844 18.757812 C 72.851562 18.953125 73.125 19.917969 73.28125 21.460938 C 73.320312 22.039062 73.355469 22.769531 73.355469 23.65625 L 73.355469 30.292969 C 73.355469 31.179688 73.320312 31.910156 73.28125 32.492188 C 73.125 34.109375 72.8125 34.996094 70.714844 35.191406 C 70.558594 35.191406 70.441406 35.34375 70.441406 35.460938 L 70.441406 35.847656 C 70.441406 35.921875 70.519531 36.15625 70.753906 36.117188 C 70.988281 36.117188 74.988281 35.808594 75.960938 35.808594 C 77.011719 35.808594 80.664062 36.078125 81.207031 36.117188 C 81.363281 36.117188 81.480469 36 81.480469 35.847656 L 81.480469 35.460938 C 81.480469 35.304688 81.363281 35.191406 81.207031 35.191406 C 79.226562 35.035156 78.796875 34.148438 78.640625 32.492188 C 78.601562 31.910156 78.5625 31.179688 78.5625 30.292969 L 78.5625 23.65625 C 78.5625 22.769531 78.601562 22.039062 78.640625 21.460938 Z M 78.640625 21.460938 " fill-opacity="1" fill-rule="nonzero"/></g><g clip-path="url(#9fe71ed3f4)"><path fill="#0e0e0b" d="M 65.121094 17.988281 C 64.574219 17.988281 63.796875 18.027344 63.796875 18.027344 C 63.214844 18.027344 55.171875 18.179688 55.171875 18.179688 C 53.890625 18.21875 51.828125 18.144531 50.585938 18.144531 C 49.34375 18.144531 47.011719 17.949219 45.378906 17.835938 C 45.183594 17.796875 45.066406 17.949219 45.066406 18.105469 L 45.066406 18.488281 C 45.066406 18.644531 45.183594 18.761719 45.339844 18.761719 C 47.4375 18.914062 47.75 19.917969 47.90625 21.460938 C 47.945312 22.039062 47.984375 22.769531 47.984375 23.65625 L 47.984375 30.292969 C 47.984375 31.179688 47.945312 31.910156 47.90625 32.492188 C 47.75 34.304688 47.207031 35.035156 45.339844 35.191406 C 45.183594 35.191406 45.066406 35.34375 45.066406 35.460938 L 45.066406 35.847656 C 45.066406 36 45.222656 36.15625 45.378906 36.117188 C 45.882812 36.078125 49.382812 35.808594 50.585938 35.808594 C 51.597656 35.808594 54.742188 36.039062 55.792969 36.117188 C 55.949219 36.117188 56.105469 35.960938 56.105469 35.847656 L 56.105469 35.460938 C 56.105469 35.304688 55.988281 35.191406 55.832031 35.191406 C 53.5 34.996094 53.421875 33.957031 53.265625 32.492188 C 53.230469 31.910156 53.191406 31.332031 53.191406 30.445312 C 53.191406 29.828125 53.191406 29.519531 53.191406 29.171875 C 53.191406 28.554688 53.421875 28.210938 54.433594 28.210938 C 56.453125 28.246094 58.824219 28.902344 58.941406 30.871094 C 58.941406 31.101562 59.019531 31.21875 59.523438 31.179688 C 59.875 31.140625 59.835938 31.0625 59.835938 30.714844 C 59.757812 29.328125 59.679688 28.671875 59.679688 27.4375 C 59.679688 26.28125 59.757812 25.625 59.835938 24.238281 C 59.875 23.929688 59.796875 23.8125 59.523438 23.773438 C 59.019531 23.734375 58.941406 23.851562 58.941406 24.082031 C 58.824219 26.125 56.375 26.742188 54.316406 26.742188 C 53.773438 26.742188 53.191406 26.628906 53.191406 25.816406 C 53.191406 23.851562 53.191406 23.195312 53.265625 21.382812 C 53.265625 20.84375 53.265625 20.265625 53.695312 19.992188 C 54.042969 19.761719 54.898438 19.683594 55.367188 19.683594 C 61.390625 19.453125 64.421875 22.230469 64.457031 23.773438 L 64.496094 24.3125 C 64.496094 24.507812 64.691406 24.582031 64.847656 24.582031 C 64.886719 24.582031 65.160156 24.582031 65.195312 24.582031 C 65.390625 24.582031 65.46875 24.46875 65.46875 24.3125 C 65.46875 24.199219 65.46875 24.042969 65.46875 23.890625 C 65.507812 23.078125 65.546875 19.800781 65.546875 18.722656 C 65.546875 18.566406 65.625 17.988281 65.121094 17.988281 Z M 65.121094 17.988281 " fill-opacity="1" fill-rule="nonzero"/></g><g clip-path="url(#3fd1a8fe46)"><path fill="#0e0e0b" d="M 179.792969 18.105469 C 179.792969 18.21875 179.792969 18.488281 179.792969 18.488281 C 179.792969 18.644531 179.675781 18.757812 179.519531 18.757812 C 177.070312 18.953125 177.070312 20.1875 176.957031 21.460938 C 176.914062 22.039062 176.875 22.769531 176.875 23.65625 L 176.875 35.808594 C 176.875 36.15625 176.644531 36.230469 176.292969 35.960938 C 176.292969 35.960938 164.015625 25.664062 162.148438 24.160156 C 162.109375 24.121094 161.878906 23.964844 161.878906 24.273438 L 161.878906 30.253906 C 161.878906 31.140625 161.917969 31.875 161.957031 32.453125 C 162.109375 34.226562 162.652344 34.996094 164.519531 35.152344 C 164.675781 35.152344 164.792969 35.304688 164.792969 35.421875 L 164.792969 35.808594 C 164.792969 35.960938 164.636719 36.078125 164.480469 36.078125 C 163.78125 36.078125 162.148438 35.769531 161.023438 35.769531 C 160.050781 35.769531 158.496094 36.039062 157.5625 36.078125 C 157.410156 36.078125 157.253906 35.960938 157.253906 35.808594 L 157.253906 35.421875 C 157.253906 35.265625 157.371094 35.152344 157.527344 35.152344 C 159.625 34.996094 159.933594 34.109375 160.089844 32.453125 C 160.128906 31.875 160.167969 31.140625 160.167969 30.253906 L 160.167969 23.695312 C 160.167969 22.808594 160.128906 22.078125 160.089844 21.496094 C 159.933594 19.957031 159.703125 18.953125 157.527344 18.796875 C 157.371094 18.796875 157.253906 18.644531 157.253906 18.527344 L 157.253906 18.140625 C 157.253906 17.988281 157.371094 17.832031 157.5625 17.871094 C 158.222656 17.910156 158.535156 17.988281 159.273438 17.988281 C 160.246094 17.988281 161.332031 17.949219 162.1875 17.949219 C 162.539062 17.949219 162.695312 18.027344 162.925781 18.21875 L 174.738281 28.054688 C 175.011719 28.246094 175.128906 28.132812 175.128906 27.976562 L 175.128906 23.734375 C 175.128906 22.847656 175.089844 22.113281 175.050781 21.535156 C 174.933594 20.265625 175.050781 19.03125 172.484375 18.835938 C 172.332031 18.835938 172.214844 18.683594 172.214844 18.566406 L 172.214844 18.179688 C 172.214844 17.949219 172.371094 17.871094 172.523438 17.910156 C 173.769531 17.988281 175.324219 18.21875 176.292969 18.21875 C 177.382812 18.21875 178.199219 17.949219 179.480469 17.910156 C 179.675781 17.832031 179.792969 17.988281 179.792969 18.105469 Z M 179.792969 18.105469 " fill-opacity="1" fill-rule="nonzero"/></g><g clip-path="url(#9843912d65)"><path fill="#0e0e0b" d="M 105.960938 29.675781 C 105.960938 29.445312 105.882812 29.40625 105.691406 29.40625 C 105.613281 29.40625 105.339844 29.40625 105.261719 29.40625 C 105.183594 29.40625 105.070312 29.480469 105.070312 29.597656 C 104.601562 32.644531 103.515625 33.648438 99.9375 33.996094 C 98.734375 34.109375 98.617188 34.148438 97.414062 34.109375 C 95.664062 34.070312 94.847656 33.6875 94.886719 30.714844 L 94.886719 23.65625 C 94.886719 22.769531 94.925781 22.039062 94.964844 21.460938 C 95.121094 19.917969 95.355469 18.953125 97.53125 18.761719 C 97.683594 18.761719 97.800781 18.605469 97.800781 18.488281 L 97.800781 18.105469 C 97.800781 18.027344 97.683594 17.796875 97.492188 17.835938 C 97.023438 17.910156 93.605469 18.144531 92.363281 18.144531 C 91.234375 18.144531 88.046875 17.871094 87.15625 17.835938 C 87 17.835938 86.84375 17.949219 86.84375 18.105469 L 86.84375 18.488281 C 86.84375 18.644531 86.960938 18.761719 87.117188 18.761719 C 89.410156 18.953125 89.523438 20.03125 89.679688 21.460938 C 89.71875 22.039062 89.757812 22.769531 89.757812 23.65625 L 89.757812 30.679688 C 89.757812 31.566406 89.71875 32.296875 89.679688 32.875 C 89.523438 34.457031 89.292969 34.996094 87.117188 35.191406 C 86.960938 35.191406 86.84375 35.34375 86.84375 35.460938 L 86.84375 35.847656 C 86.84375 36 87.039062 36.15625 87.15625 36.117188 C 90.921875 35.886719 92.632812 35.769531 96.867188 35.769531 C 100.25 35.769531 102.039062 35.808594 105.03125 36.078125 C 105.496094 36.117188 105.882812 36 105.882812 35.34375 C 105.808594 33.957031 105.808594 32.953125 105.960938 29.675781 Z M 105.960938 29.675781 " fill-opacity="1" fill-rule="nonzero"/></g><g clip-path="url(#bc017a9254)"><path fill="#0e0e0b" d="M 120.570312 24.582031 C 114.625 23.65625 111.980469 23.039062 111.980469 21.460938 C 111.980469 20.496094 113.417969 19.492188 117.113281 19.492188 C 119.714844 19.492188 122.550781 20.1875 123.988281 21.769531 C 124.300781 22.117188 124.496094 22.539062 124.6875 22.808594 C 124.84375 23.039062 124.960938 23.117188 125.195312 23.117188 C 125.347656 23.117188 125.582031 23.117188 125.738281 23.078125 C 126.011719 23.003906 126.050781 22.886719 126.050781 22.617188 C 125.894531 21.226562 125.855469 20.300781 126.085938 19.144531 C 126.125 18.875 126.203125 18.683594 125.660156 18.453125 C 125.039062 18.179688 123.71875 17.988281 121.734375 17.757812 C 120.179688 17.601562 118.820312 17.527344 117.734375 17.527344 C 115.671875 17.527344 113.886719 17.871094 112.488281 18.527344 C 110.078125 19.609375 108.988281 21.382812 108.988281 23.234375 C 108.988281 26.359375 111.90625 27.824219 114.273438 28.363281 C 116.957031 28.980469 120.21875 29.019531 122.359375 30.175781 C 124.300781 31.257812 123.949219 32.835938 122.511719 33.800781 C 120.570312 35.035156 116.566406 35.460938 113.730469 33.800781 C 112.71875 33.222656 111.320312 32.105469 110.777344 30.640625 C 110.542969 30.0625 110.273438 29.480469 110.039062 29.328125 C 109.804688 29.210938 109.496094 29.171875 109.300781 29.210938 C 109.105469 29.25 109.027344 29.367188 109.027344 29.597656 C 109.105469 30.253906 109.417969 31.875 108.875 33.492188 C 108.796875 33.761719 108.757812 33.878906 108.988281 34.109375 C 109.921875 35.035156 113.964844 36.539062 118.199219 36.539062 C 122.589844 36.539062 125 35.035156 126.359375 33.761719 C 128.496094 31.71875 129.042969 28.941406 126.980469 27.015625 C 125.894531 26.089844 124.648438 25.238281 120.570312 24.582031 Z M 120.570312 24.582031 " fill-opacity="1" fill-rule="nonzero"/></g><g clip-path="url(#f6370b5f5a)"><path fill="#0e0e0b" d="M 86.054688 49.386719 C 85.015625 49.386719 84.125 48.945312 83.644531 48.28125 L 84.535156 47.507812 C 84.980469 48.023438 85.535156 48.207031 86.128906 48.207031 C 86.871094 48.207031 87.207031 48.023438 87.207031 47.546875 C 87.207031 47.140625 86.984375 46.996094 85.832031 46.699219 C 84.683594 46.441406 83.902344 46.074219 83.902344 44.859375 C 83.902344 43.757812 84.90625 43.058594 86.128906 43.058594 C 87.09375 43.058594 87.800781 43.425781 88.394531 44.015625 L 87.503906 44.859375 C 87.09375 44.457031 86.648438 44.234375 86.09375 44.234375 C 85.425781 44.234375 85.203125 44.527344 85.203125 44.785156 C 85.203125 45.15625 85.460938 45.300781 86.464844 45.523438 C 87.429688 45.742188 88.542969 46.074219 88.542969 47.4375 C 88.503906 48.613281 87.761719 49.386719 86.054688 49.386719 Z M 86.054688 49.386719 " fill-opacity="1" fill-rule="nonzero"/></g><g clip-path="url(#1ddb6d3286)"><path fill="#0e0e0b" d="M 90.65625 43.167969 L 92.140625 43.167969 L 92.140625 49.3125 L 90.65625 49.3125 Z M 90.65625 43.167969 " fill-opacity="1" fill-rule="nonzero"/></g><g clip-path="url(#520a9ea31f)"><path fill="#0e0e0b" d="M 98.453125 49.3125 L 96.1875 45.964844 C 96.039062 45.742188 95.816406 45.410156 95.742188 45.265625 C 95.742188 45.484375 95.742188 46.257812 95.742188 46.589844 L 95.742188 49.273438 L 94.519531 49.273438 L 94.519531 43.167969 L 95.707031 43.167969 L 97.894531 46.40625 C 98.042969 46.625 98.265625 46.957031 98.339844 47.105469 C 98.339844 46.882812 98.339844 46.109375 98.339844 45.742188 L 98.339844 43.128906 L 99.566406 43.128906 L 99.566406 49.273438 L 98.453125 49.273438 Z M 98.453125 49.3125 " fill-opacity="1" fill-rule="nonzero"/></g><g clip-path="url(#85fd01de21)"><path fill="#0e0e0b" d="M 105.28125 44.933594 C 105.058594 44.527344 104.726562 44.269531 104.132812 44.269531 C 103.203125 44.269531 102.683594 45.082031 102.683594 46.222656 C 102.683594 47.324219 103.242188 48.171875 104.167969 48.171875 C 104.726562 48.171875 105.058594 47.949219 105.394531 47.398438 L 106.433594 48.023438 C 106.023438 48.90625 105.28125 49.421875 104.132812 49.421875 C 102.5 49.421875 101.421875 48.207031 101.421875 46.257812 C 101.421875 44.382812 102.574219 43.09375 104.167969 43.09375 C 105.320312 43.09375 106.0625 43.644531 106.433594 44.457031 Z M 105.28125 44.933594 " fill-opacity="1" fill-rule="nonzero"/></g><g clip-path="url(#9993c8b98e)"><path fill="#0e0e0b" d="M 108.179688 49.3125 L 108.179688 43.167969 L 112.488281 43.167969 L 112.488281 44.34375 L 109.40625 44.34375 L 109.40625 45.523438 L 111.1875 45.523438 L 111.1875 46.699219 L 109.40625 46.699219 L 109.40625 48.0625 L 112.597656 48.0625 L 112.597656 49.273438 L 108.179688 49.273438 Z M 108.179688 49.3125 " fill-opacity="1" fill-rule="nonzero"/></g><g clip-path="url(#89d53d385e)"><path fill="#0e0e0b" d="M 136.203125 49.273438 L 134.832031 49.273438 L 136.722656 44.34375 L 134.457031 44.34375 L 134.457031 43.128906 L 138.171875 43.128906 L 138.171875 44.160156 Z M 136.203125 49.273438 " fill-opacity="1" fill-rule="nonzero"/></g><g clip-path="url(#c26e72ebb6)"><path fill="#0e0e0b" d="M 130.933594 43.054688 C 130.304688 43.054688 129.710938 43.277344 129.265625 43.71875 C 128.855469 44.125 128.667969 44.675781 128.667969 45.191406 C 128.667969 46.480469 129.597656 47.25 130.859375 47.25 C 130.972656 47.25 131.082031 47.25 131.195312 47.214844 C 131.082031 47.433594 131.007812 47.582031 130.933594 47.765625 C 130.675781 48.28125 130.414062 48.796875 130.15625 49.3125 L 131.527344 49.3125 C 131.789062 48.871094 132.269531 47.730469 132.640625 46.921875 C 132.976562 46.109375 133.125 45.707031 133.125 45.226562 C 133.125 43.902344 132.234375 43.054688 130.933594 43.054688 Z M 130.859375 44.125 C 131.453125 44.125 131.863281 44.566406 131.863281 45.152344 C 131.863281 45.449219 131.75 45.707031 131.601562 45.890625 C 131.378906 46.109375 131.15625 46.183594 130.859375 46.183594 C 130.265625 46.183594 129.859375 45.742188 129.859375 45.152344 C 129.859375 44.640625 130.265625 44.125 130.859375 44.125 Z M 130.859375 44.125 " fill-opacity="1" fill-rule="nonzero"/></g><g clip-path="url(#c451edd953)"><path fill="#0e0e0b" d="M 125.21875 49.347656 C 124.105469 49.347656 123.175781 48.6875 123.175781 47.621094 C 123.175781 46.847656 123.65625 46.257812 124.289062 46.039062 C 123.695312 45.816406 123.398438 45.300781 123.398438 44.710938 C 123.398438 43.828125 124.105469 43.019531 125.292969 43.019531 C 126.40625 43.019531 127.109375 43.757812 127.109375 44.601562 C 127.109375 45.226562 126.777344 45.742188 126.21875 45.964844 C 126.925781 46.148438 127.332031 46.738281 127.332031 47.472656 C 127.332031 48.574219 126.480469 49.347656 125.21875 49.347656 Z M 125.253906 46.808594 C 124.847656 46.808594 124.4375 47.066406 124.4375 47.621094 C 124.4375 48.0625 124.773438 48.355469 125.253906 48.355469 C 125.699219 48.355469 126.070312 48.023438 126.070312 47.582031 C 126.070312 47.066406 125.664062 46.808594 125.253906 46.808594 Z M 125.253906 44.011719 C 124.773438 44.011719 124.511719 44.34375 124.511719 44.75 C 124.511719 45.191406 124.882812 45.449219 125.253906 45.449219 C 125.625 45.449219 125.960938 45.226562 125.960938 44.710938 C 125.960938 44.34375 125.699219 44.011719 125.253906 44.011719 Z M 125.253906 44.011719 " fill-opacity="1" fill-rule="nonzero"/></g><g clip-path="url(#b3252acae8)"><path fill="#0e0e0b" d="M 120.019531 49.273438 L 120.019531 44.859375 L 118.980469 44.859375 L 118.980469 43.941406 C 119.316406 43.941406 120.207031 43.316406 120.207031 43.128906 L 121.355469 43.128906 L 121.355469 49.273438 Z M 120.019531 49.273438 " fill-opacity="1" fill-rule="nonzero"/></g></svg>