<svg xmlns="http://www.w3.org/2000/svg" viewBox="0 0 5726 600"><path d="m5157 88 2.051 1.926c5.132 4.943 9.574 10.465 13.949 16.074l1.298 1.656c16.811 21.645 28.986 46.431 37.702 72.344l1.094 3.137c2.181 6.918 3.253 14.687 1.906 21.863-4.061 5.274-8.698 6.589-14.953 8.375l-2.951.884c-3.111.929-6.228 1.835-9.346 2.741q-3.075.912-6.148 1.828a2168 2168 0 0 1-11.995 3.53 871 871 0 0 0-10.632 3.169l-2.328.705q-2.096.635-4.185 1.286c-5.949 1.792-12.356 3.07-18.462 1.482-6.378-3.748-8.504-8.636-10.688-15.438-8.48-24.032-21.546-45.34-39.312-63.562l-1.75-1.938c-17.067-18.432-43.843-29.21-68.613-30.281-33.952-.94-65.224 10.994-89.96 34.144-11.258 10.933-19.484 24.235-26.677 38.075l-.92 1.729c-28.995 55.068-31.745 129.06-13.573 187.76 12.674 40.053 34.625 73.893 72.431 93.761 28.57 13.626 60.951 16.362 90.936 6.109 30.235-10.714 53.921-32.268 68.126-60.992 5.14-10.93 8.111-22.074 10.168-33.949l.541-3.052q.652-3.682 1.291-7.366l-2.344.014q-28.23.166-56.461.245c-9.101.026-18.202.061-27.304.118q-11.898.076-23.797.093c-4.2.007-8.4.022-12.601.059q-5.93.05-11.861.037-2.177.001-4.352.03c-1.983.025-3.963.019-5.946.005l-3.361.014c-4.1-.848-5.308-2.433-7.973-5.615-1.457-2.914-1.156-5.838-1.161-9.032l-.015-2.194q-.021-3.6-.027-7.2l-.017-5q-.016-5.247-.02-10.494c-.006-4.479-.03-8.958-.058-13.437a2093 2093 0 0 1-.026-10.333 818 818 0 0 0-.024-4.953 668 668 0 0 1-.008-6.936l-.028-2.062c.037-4.276.574-7.081 3.384-10.359 5.173-2.302 10.011-2.282 15.609-2.254l2.913-.009c3.218-.008 6.435-.002 9.652.004l6.924-.01c5.616-.009 11.231-.007 16.847-.002q6.846.007 13.692.003l1.97-.001 3.961-.002q18.564-.006 37.128.012 15.927.012 31.854-.002a28522 28522 0 0 1 42.907-.006q6.839.002 13.677-.006 8.333-.009 16.665.007 4.251.008 8.503.001c3.072-.006 6.143.001 9.216.011l2.714-.013c5.188.032 9.35.28 13.518 3.705 2.294 2.867 2.376 5.6 2.381 9.118l.012 2.849-.003 3.134.009 3.326q.012 4.576.011 9.152.004 4.932.016 9.865.02 10.788.024 21.576l.012 13.469q.019 18.64.026 37.28v2.41l.001 2.417.001 4.847.001 2.429q.007 19.485.045 38.972.035 20 .037 40 0 11.232.025 22.463.023 9.563.012 19.126-.008 4.88.011 9.759c.015 3.526.007 7.051-.004 10.577l.025 3.121c-.041 5.803-.42 9.658-4.667 13.965-2.71 1.111-5.437 1.01-8.32 1.013l-2.017.026a854 854 0 0 1-6.599.039l-4.592.027q-4.815.024-9.629.028c-4.108.005-8.215.043-12.323.088-3.163.03-6.325.037-9.487.038q-2.27.006-4.543.038c-2.121.027-4.24.022-6.361.009l-1.886.045c-3.431-.057-5.387-.665-7.817-2.992-5.177-6.383-4.523-14.166-4.713-22.027-.203-7.258-.477-14.423-1.438-21.625l-1.73 2.055c-26.283 30.498-67.992 41.362-106.758 44.767-8.156.578-16.34.522-24.512.49l-2.99-.005c-15.533-.048-30.679-.615-46.01-3.307l-3.067-.536c-39.434-7.136-73.87-21.645-102.933-49.464l-1.676-1.577c-25.756-24.318-44.025-56.012-55.324-89.423l-.917-2.684c-10.594-31.506-16.187-65.179-16.286-98.398l-.009-1.989q-.022-5.237-.028-10.475-.007-4.215-.041-8.431c-.203-25.357 1.189-50.506 5.593-75.523l.316-1.83c8.169-47.093 28.041-90.996 60.876-125.986 2.133-2.275 4.169-4.616 6.184-6.996 3.457-3.971 7.292-7.302 11.312-10.688a1280 1280 0 0 0 2.766-2.461C4929.623 21.48 5033.37 11.466 5157 88M2802.007 30.82a3408 3408 0 0 0 6.395-.029c25.047-.122 50.202.454 75.035 4.021l1.82.253c12.37 1.721 24.59 4.05 36.743 6.935l2.481.581c21.057 5.041 41.596 14.241 57.367 29.356 1.957 1.876 3.98 3.552 6.09 5.25 18.424 16.117 30.477 41.42 36.062 64.813l.496 1.997c8.291 34.783 1.803 73.36-16.207 103.913-5.783 9.371-13.003 17.127-20.918 24.726-2.37 2.364-2.37 2.364-3.37 4.364l2.128.703c3.46 1.562 5.958 3.576 8.808 6.047l1.697 1.462c24.207 21.151 41.754 47.011 50.178 78.288l.554 2.04c3.582 14.347 5.14 28.751 5.025 43.512-.016 2.448 0 4.894.02 7.342.02 14.92-1.788 29.705-6.036 44.043l-.765 2.608c-6.557 21.404-17.453 40.535-32.61 56.955l-1.479 1.628c-27.854 30.368-65.785 42.04-105.709 46.06l-1.804.184c-22.188 2.226-44.543 2.304-66.82 2.253l-3.9-.007c-8.493-.016-16.985-.047-25.477-.084q-7.864-.033-15.729-.053l-1.822-.005c-.61 0-1.22-.003-1.85-.005q-19.78-.048-39.559-.158c-6.725-.038-13.45-.069-20.175-.084q-8.707-.018-17.415-.084c-3.015-.022-6.029-.038-9.044-.037-3.314-.002-6.627-.029-9.94-.062l-2.953.015c-7.333-.114-7.333-.114-10.404-2.47-2.476-2.697-3.045-4.123-3.05-7.68l-.01-2.276.003-2.517-.008-2.672c-.008-2.988-.008-5.976-.009-8.963l-.013-6.452q-.015-7.968-.02-15.936-.01-9.539-.028-19.078-.035-23.06-.053-46.119l-.014-15.27q-.04-40.582-.059-81.163l-.009-18.809v-2.36q-.022-37.895-.086-75.788-.066-38.94-.075-77.883 0-5.498-.002-10.995v-2.186c-.005-11.619-.025-23.239-.05-34.859a11051 11051 0 0 1-.024-35.024q.01-10.41-.03-20.819c-.019-5.176-.012-10.352.005-15.529q.004-3.147-.018-6.295c-.019-2.845-.008-5.688.012-8.533l-.039-2.489c.074-4.914.961-7.642 4.292-11.298 2.748-2.21 5.66-2.257 9.031-2.379l2.887-.112 3.138-.107 3.27-.122q4.387-.163 8.774-.315l5.508-.194q7.364-.265 14.728-.519a2631 2631 0 0 0 16.855-.623c19.386-.79 38.782-.859 58.181-.908M2768 119v127c112.957 4.706 112.957 4.706 145.93-24.074L2916 220l1.945-1.707c9.246-8.546 14.38-20.205 15.215-32.684.452-13.746-4.045-26.855-12.91-37.422-24.487-25.642-66.262-29.445-99.674-30.245a857 857 0 0 0-15.124-.073c-2.582.006-5.164 0-7.745-.006l-5.09.004-2.255-.006c-7.513.032-14.812.635-22.362 1.14m0 211v154c6.278 1.046 12.343 1.368 18.687 1.562l1.982.062c15.223.457 30.452.52 45.68.557q2.911.01 5.824.027c17.958.095 35.89-.069 53.514-3.958l2.346-.51c20.164-4.628 39.202-13.795 50.842-31.49 11.173-17.872 14.51-41.314 10.062-61.875-3.5-11.202-9.626-20.184-17.937-28.375l-1.637-1.668c-5.599-5.26-12.595-8.81-19.363-12.332l-1.62-.845c-15.86-8.032-33.922-11.059-51.38-13.468-.584-.08-1.168-.162-1.77-.246-14.524-1.985-29.042-2.599-43.687-2.574l-4.215-.003q-4.357 0-8.714.005-5.58.007-11.163-.003-4.325-.005-8.65 0-2.06.001-4.12-.003-2.86-.002-5.719.007l-3.279.003C2771 329 2771 329 2768 330M516.519 31.746l1.98-.009c2.189-.008 4.377-.002 6.566.004l4.712-.01c4.275-.01 8.549-.006 12.823 0 4.498.005 8.996.001 13.494-.002q11.369-.005 22.738.01 13.034.015 26.072-.003 11.25-.014 22.503-.006 6.69.007 13.383-.003c25.104-.032 50.277.154 75.148 4.023l3.33.51C749.058 41.103 774.449 52.686 796 74l1.969 1.785c10.078 9.322 16.414 21.893 22.03 34.215l1.435 3.098C834.716 144.504 836.614 187.901 829 221l-.504 2.266C820.894 256.378 800.868 285.838 772 304c-22.77 14-22.77 14-30 14l.53 1.455c8.454 23.166 16.806 46.357 24.845 69.67 11.933 34.57 24.226 69.005 37.063 103.25l1.13 3.021c3.64 9.719 7.32 19.414 11.225 29.03l1.723 4.285a430 430 0 0 0 3.134 7.57c3.145 7.631 5.67 16.687 2.555 24.787-1.625 2.588-3.546 4.468-6.205 5.932-1.68.26-1.68.26-3.547.274l-2.153.03-2.348.002-2.484.026c-2.715.024-5.43.032-8.143.039l-5.662.027q-5.937.024-11.875.028c-5.068.005-10.135.043-15.202.088-3.9.03-7.8.037-11.698.038q-2.802.006-5.603.038c-2.617.027-5.232.022-7.848.009l-2.33.045c-4.768-.064-7.38-1.015-10.925-4.231-2.238-2.677-3.201-5.736-4.24-9.022l-.793-2.333a543 543 0 0 1-1.696-5.094c-1.241-3.783-2.524-7.551-3.804-11.321q-1.067-3.139-2.125-6.281c-4.381-12.989-8.99-25.897-13.581-38.813-2.496-7.024-4.983-14.05-7.47-21.076l-.727-2.053a8595 8595 0 0 1-11.533-32.774l-2.492-7.123a4349 4349 0 0 1-7.121-20.486c-6.524-18.936-13.442-37.653-20.928-56.233l-.946-2.357q-.88-2.187-1.771-4.371C647 339.222 647 339.222 647 337h-52c.01 6.597.02 13.195.032 19.992a83604 83604 0 0 1 .078 73.19 30475 30475 0 0 0 .045 33.693q.027 16.275.034 32.548.002 10.04.027 20.079.016 7.703.01 15.404 0 3.158.013 6.314c.01 2.875.007 5.749.002 8.624.006.832.01 1.664.017 2.52-.03 5.936-.292 11.427-4.4 16.042-3.701 2.064-6.43 2.152-10.598 2.096l-2.313.016c-2.514.013-5.027-.004-7.54-.022q-2.63 0-5.257.004-5.502.002-11.005-.033c-4.697-.029-9.394-.026-14.092-.013-3.617.007-7.234-.001-10.851-.014q-2.597-.006-5.195-.001c-2.423.003-4.844-.013-7.266-.035l-2.161.014c-4.294-.064-7.157-.561-10.58-3.418-2.424-4.485-2.282-8.742-2.257-13.704l-.011-2.667c-.01-2.965-.004-5.929 0-8.893q-.004-3.212-.013-6.423-.014-6.993-.011-13.986.002-10.4-.016-20.799c-.02-13.101-.025-26.203-.026-39.304a61392 61392 0 0 0-.011-30.347l-.006-8.732-.001-2.192q-.019-30.53-.02-61.06v-13.997c.002-.773.002-1.545.002-2.341v-4.688q0-36.474-.041-72.948-.048-40.965-.046-81.93v-10.904c0-11.544-.013-23.088-.03-34.633q-.026-17.395-.006-34.791.013-10.34-.016-20.679c-.013-5.141-.006-10.283.01-15.424q.005-3.127-.012-6.253c-.014-2.825-.003-5.65.014-8.475l-.031-2.471C501.54 40.986 502.57 38.17 506 34c3.253-2.399 6.614-2.283 10.519-2.254M593.999 116a71359 71359 0 0 0-.05 52.754q-.008 12.246-.024 24.492-.015 10.67-.02 21.34 0 5.653-.01 11.307-.01 5.314-.008 10.63 0 1.956-.006 3.912-.006 2.66-.001 5.32l-.003 3.014C594 251 594 251 595 252c2.47.102 4.912.139 7.383.133l2.296.004q3.723.002 7.446-.012l2.558-.006c81.979-.215 81.979-.215 111.618-26.131 12.602-12.846 17.237-30.719 17.122-48.23-.466-14.27-5.352-28.207-15.192-38.785-23.665-20.93-57.683-23.196-87.844-23.071l-4.047.005q-5.254.006-10.51.024-5.39.014-10.781.02-10.524.017-21.05.049m538.466-84.14 2.77-.017 3.032-.004 3.2-.015q4.34-.018 8.683-.024l5.428-.011q8.495-.022 16.99-.027a5335 5335 0 0 0 19.6-.051q7.578-.032 15.16-.033c3.015-.002 6.032-.007 9.05-.025a1259 1259 0 0 1 10.096-.01l3.02-.027c8.591.052 8.591.052 12.506 3.384 2.628 2.877 3.772 5.726 4.967 9.409l1.09 3.322 1.162 3.62 1.242 3.81q1.68 5.153 3.342 10.31c1.172 3.624 2.352 7.245 3.532 10.866q2.552 7.835 5.094 15.674a6822 6822 0 0 0 8.622 26.38l2.401 7.304.592 1.799c8.372 25.465 16.596 50.975 24.73 76.516q3.39 10.646 6.792 21.29a25263 25263 0 0 1 28.2 88.776l2.742 8.698a22248 22248 0 0 0 15.76 49.712c4.494 14.144 8.981 28.288 13.435 42.444 6.775 21.53 13.574 43.05 20.603 64.5q1.489 4.544 2.972 9.089l1.93 5.903.95 2.91a3799 3799 0 0 0 5.77 17.477c1.244 3.756 2.474 7.518 3.7 11.28a678 678 0 0 0 1.733 5.217c7.4 21.977 7.4 21.977 3.543 31.36-2.796 3.427-6.35 4.947-10.723 5.61-1.928.11-3.835.13-5.765.113l-2.19.016c-2.369.013-4.737.004-7.105-.006l-4.972.009q-5.195.005-10.39-.016a1636 1636 0 0 0-13.293.01q-5.127.014-10.256 0-2.45-.003-4.9.007c-2.285.008-4.57-.004-6.855-.02l-2.027.018c-4.576-.061-7.537-.944-11.428-3.407-4.576-5.581-6.232-14.11-8.492-20.902l-1.282-3.802q-1.356-4.027-2.704-8.058-2.11-6.308-4.238-12.614-2.134-6.337-4.265-12.675a6565 6565 0 0 0-11.04-32.578l-3.219-9.431q-.74-2.161-1.489-4.32a480 480 0 0 1-4.03-12.134q-.907-2.77-1.81-5.54l-.815-2.657-.812-2.444-.69-2.18C1271 434 1271 434 1268.87 433.405c-3.318-.467-6.569-.542-9.912-.531l-2.112-.004q-3.493-.004-6.988.002l-5.017-.005q-6.804-.006-13.61 0-7.117.002-14.235-.001-11.947-.003-23.895.005-13.827.008-27.653-.002-11.864-.006-23.728-.002l-14.178-.002q-6.66-.004-13.319.005l-4.898-.001q-3.333-.004-6.664.005l-1.977-.006c-4.456.019-4.456.019-6.684 1.133-.749 1.623-.749 1.623-1.464 3.767l-.832 2.456-.894 2.718c-.315.94-.63 1.88-.957 2.849-1.052 3.137-2.093 6.277-3.134 9.417q-1.102 3.296-2.207 6.588a9599 9599 0 0 0-5.234 15.678c-18.79 56.438-18.79 56.438-24.504 72.766a596 596 0 0 0-1.202 3.484 439 439 0 0 1-1.609 4.597l-.869 2.484c-1.597 3.205-3.529 5.552-6.89 6.936-3.15.372-6.28.416-9.448.422l-2.189.015c-2.384.014-4.769.02-7.153.027q-2.493.007-4.984.017-5.223.014-10.446.02c-4.454.005-8.908.029-13.362.058-3.432.018-6.863.023-10.295.025q-2.463.004-4.925.024c-2.3.017-4.6.015-6.9.009l-2.04.028c-5.348-.047-9.084-1.416-13.275-4.885-3.4-4.295-2.616-10.354-2.187-15.5.926-4.253 2.274-8.34 3.672-12.457q.592-1.803 1.18-3.61 1.262-3.86 2.551-7.711c1.375-4.111 2.728-8.23 4.077-12.35q2.475-7.551 4.97-15.098c4.204-12.726 8.325-25.478 12.434-38.235q1.56-4.844 3.123-9.684c7.432-23.025 14.727-46.092 21.993-69.17 4.412-14.01 8.857-28.007 13.304-42.004l5.7-17.942.632-1.991q4.547-14.318 9.08-28.642l.581-1.841 2.33-7.361c18.646-58.945 37.417-117.848 56.624-176.613q1.134-3.468 2.265-6.938a8328 8328 0 0 1 8.852-26.975q1.372-4.154 2.73-8.313 1.572-4.815 3.173-9.622.58-1.748 1.147-3.498c3.634-11.192 3.634-11.192 7.582-14.945 2.818-.94 4.547-1.13 7.465-1.14M1177 164c-.86 2.066-.86 2.066-1.556 4.485l-.815 2.786-.86 3.05-.93 3.212a1897 1897 0 0 0-2.503 8.752q-1.06 3.72-2.133 7.437c-5.4 18.756-10.67 37.55-15.915 56.35-6.798 24.363-13.835 48.655-20.902 72.94l-.64 2.202q-1.495 5.135-2.992 10.268l-1.059 3.635-.923 3.166A217 217 0 0 0 1124 349h117c-7.982-28.504-7.982-28.504-11.114-39.407q-.919-3.199-1.835-6.397l-2.67-9.315-.686-2.394-1.399-4.88c-5.715-19.93-11.39-39.871-16.942-59.848l-2.394-8.605a8998 8998 0 0 1-6.902-24.898q-1.414-5.118-2.84-10.231-.66-2.378-1.31-4.76-.894-3.255-1.805-6.505l-.515-1.914c-.989-3.485-2.045-6.223-4.588-8.846-4.304-.627-6.28-.381-9 3M3231.557 31.626l1.992-.012c2.203-.01 4.405.002 6.608.014q2.37-.004 4.742-.011c4.3-.01 8.602 0 12.903.013 4.526.012 9.052.007 13.578.005q11.44 0 22.88.029 13.117.03 26.235.018 12.697-.007 25.395.012 5.356.006 10.715.003c25.162-.01 50.404.178 75.333 4.053l3.322.506c10.519 1.703 20.649 4.343 30.74 7.744l1.764.58c15.467 5.233 29.35 15.447 41.236 26.42l2.188 1.942c27.083 25.28 35.648 63.91 36.939 99.542.918 41.232-7.008 80.346-36.03 111.327-11.06 11.517-23.216 20.43-37.472 27.627l-1.906.963c-3.42 1.663-6.845 3.022-10.46 4.205l-2.425.797L3458 318l.504 1.419q3.345 9.414 6.684 18.83l1.135 3.202a8567 8567 0 0 1 13.849 39.338l.653 1.87 2.627 7.528C3496.274 426.923 3509.24 463.602 3523 500l1.076 2.848c3.335 8.822 6.693 17.63 10.21 26.383l1.447 3.634q1.26 3.163 2.578 6.305c3.156 7.886 4.197 15.354.834 23.358-2.047 2.633-4.602 4.228-7.926 4.755-2.14.114-4.26.134-6.402.12-.405.005-.405.005-2.456.022-2.671.018-5.342.015-8.013.009q-2.793.007-5.585.016-5.85.012-11.7-.004c-4.99-.011-9.981.009-14.972.038-3.844.019-7.69.018-11.533.013a726 726 0 0 0-5.52.018c-2.575.015-5.15.004-7.725-.013l-2.291.029c-5.221-.072-8.013-1.13-12.022-4.531-1.19-1.824-1.19-1.824-1.82-3.72l-.763-2.191-.756-2.374-.86-2.52c-.932-2.746-1.834-5.501-2.738-8.257q-.98-2.906-1.964-5.81-2.048-6.043-4.07-12.094c-2.833-8.453-5.77-16.87-8.714-25.284q-1.418-4.057-2.83-8.116c-4.143-11.885-8.4-23.725-12.712-35.548-4.388-12.048-8.538-24.17-12.631-36.32-5.51-16.351-11.182-32.618-17.267-48.766l-.927-2.462c-3.28-8.693-6.621-17.357-10.164-25.946C3363 339.216 3363 339.216 3363 337h-53l.064 20.483q.095 32.436.14 64.87l.016 10.076.003 2.026q.029 16.242.086 32.484.056 16.664.068 33.327.007 10.284.055 20.568c.024 5.256.026 10.51.02 15.767q.003 3.236.025 6.47c.02 2.942.015 5.883.004 8.824l.036 2.597c-.038 3.74-.09 6.478-2.422 9.515-3.637 3.46-6.708 3.147-11.494 3.154l-2.312.015q-3.795.021-7.59.027l-5.27.018q-5.528.015-11.057.019c-4.722.006-9.442.03-14.164.058-3.63.019-7.26.024-10.89.026q-2.61.004-5.22.024c-2.437.017-4.873.015-7.31.009l-2.174.028c-4.33-.036-7.122-.564-10.614-3.385-2.735-3.843-2.278-8.08-2.254-12.6l-.01-2.67c-.008-2.972-.002-5.945.004-8.918l-.012-6.435q-.012-7.011-.006-14.022c.005-6.95-.001-13.9-.01-20.85-.015-13.134-.016-26.27-.014-39.403q.003-15.21-.004-30.421l-.002-4.368-.003-6.58q-.014-30.6-.008-61.201V354.2l.003-11.7v-7.047q.01-36.563-.02-73.128-.032-41.06-.027-82.121v-10.928q.002-16.284-.015-32.57-.02-18.511-.001-37.026.01-10.366-.01-20.732-.01-7.73.01-15.46.005-3.135-.007-6.271c-.01-2.831-.001-5.661.012-8.493l-.023-2.484c.054-5.584 1.132-8.96 5.175-13.03 2.935-1.6 5.522-1.624 8.779-1.585M3310 116a71359 71359 0 0 0-.051 52.754q-.008 12.246-.024 24.493-.015 10.67-.02 21.34 0 5.652-.01 11.306a4708 4708 0 0 0-.008 10.63q0 1.956-.006 3.912-.006 2.66-.001 5.32l-.003 3.014c.123 2.23.123 2.23 1.123 3.23 2.398.103 4.766.14 7.164.134.736 0 1.47.003 2.229.004 2.41.003 4.82-.004 7.232-.012l2.488-.005c84.626-.23 84.626-.23 112.137-26.932 11.724-11.965 16.712-28.218 17-44.75-.2-15.821-4.778-29.6-15.902-41.188-22.505-21.57-57.33-23.471-86.961-23.347q-2.024.001-4.047.004-5.254.007-10.51.025-5.39.013-10.781.019-10.524.016-21.05.049M4568 83l1.454 1.292a435 435 0 0 1 9.129 8.375 504 504 0 0 0 3.94 3.657c22.824 21.752 38.743 51.367 49.477 80.676l.925 2.506c14.978 41.102 20.079 85.917 19.075 129.494l-.054 2.717c-1.415 63.909-15.747 132.19-57.946 182.283l-2.672 3.266C4574.635 517.46 4554.351 533.155 4531 545l-1.919.986c-51.601 26.253-111.969 25.544-168.414 25.287q-6.57-.029-13.141-.033l-1.862-.001-3.719-.003c-24.078-.021-48.156-.186-72.231-.571q-3.494-.056-6.989-.101c-3.207-.043-6.413-.099-9.62-.159l-2.851-.032c-10.669-.233-10.669-.233-15.066-3.873-1.934-2.442-2.313-4.043-2.318-7.089l-.011-2.276.004-2.517-.008-2.672c-.008-2.988-.008-5.975-.009-8.963l-.013-6.452q-.016-7.968-.021-15.936-.01-9.539-.026-19.078c-.026-15.373-.041-30.746-.054-46.119l-.013-15.271q-.04-40.581-.06-81.161l-.009-18.81-.001-2.36q-.02-37.895-.085-75.788a54647 54647 0 0 1-.077-88.878l-.001-2.185c-.003-11.62-.024-23.24-.05-34.86q-.04-17.511-.023-35.024.01-10.409-.03-20.818c-.019-5.177-.012-10.353.005-15.53q.005-3.147-.018-6.295c-.019-2.845-.007-5.688.012-8.533l-.039-2.488c.074-4.915.961-7.643 4.292-11.299 3.433-2.762 7.719-2.308 11.892-2.395l2.333-.06q3.861-.094 7.722-.178l5.466-.131c5.922-.14 11.843-.269 17.764-.396l6.101-.134C4469.609 28.848 4469.609 28.848 4568 83m-243 40v358c149.652 0 149.652 0 187.938-36.5 27.82-29.46 38.225-71.128 41.062-110.5l.125-1.682c.75-10.237 1.078-20.43 1.063-30.693l-.002-2.217c-.102-45.617-5.901-96.084-36.186-132.408l-2.145-2.605c-23.06-26.8-54.874-35.517-88.855-39.395-34.253-2.447-68.66-2-103-2M41.928 33.869l3.1-.012 3.416.003 3.62-.01q4.983-.01 9.967-.01c3.581-.001 7.162-.01 10.743-.016a23004 23004 0 0 1 23.498-.024l14.668-.011q20.3-.02 40.603-.026l2.625-.001h2.632l5.28-.002h2.645c14.148-.004 28.295-.022 42.443-.045q21.782-.036 43.563-.038 12.232.002 24.464-.024 10.415-.024 20.83-.013c3.543.004 7.086.003 10.63-.011q4.865-.017 9.731 0c1.728.004 3.456-.008 5.185-.02 5.613.035 9.754.13 14.43 3.39 2.74 2.996 2.294 6.47 2.29 10.33l.02 2.254c.02 2.459.023 4.919.025 7.378l.02 5.13q.018 5.38.014 10.759c0 4.592.027 9.184.062 13.777.022 3.532.026 7.065.025 10.598q.003 2.54.027 5.078c.02 2.37.014 4.739.002 7.109l.034 2.113c-.06 4.693-1.076 7.042-4.52 10.475-2.157 1.079-3.17 1.125-5.542 1.123l-2.239.007-2.47-.01c-.863.002-1.727.002-2.616.003q-4.365.001-8.729-.01h-6.238q-7.605.002-15.21-.01-8.85-.008-17.697-.01-15.78-.002-31.559-.017-15.33-.014-30.66-.021h-1.929l-16.6-.007c-23.837-.01-47.674-.03-71.51-.048v123c58.561-.187 58.561-.187 77.036-.27 7.46-.013 7.46-.013 10.953-.016q3.653-.005 7.304-.03 4.667-.03 9.333-.023a525 525 0 0 0 5.02-.034c6.757.028 12.043.382 17.265 5.1 1.524 3.185 1.514 6.167 1.492 9.625l.021 2.223c.018 2.422.014 4.843.008 7.265l.016 5.059q.013 5.3-.003 10.599c-.012 4.524.008 9.048.038 13.572.018 3.482.018 6.964.012 10.446q0 2.502.018 5.003a495 495 0 0 1-.013 7l.03 2.08c-.05 3.334-.5 5.347-2.188 8.244-5.732 5.277-12.467 4.434-19.856 4.384h-3.49c-3.145.002-6.289-.01-9.433-.024-3.29-.012-6.583-.013-9.874-.016a7753 7753 0 0 1-18.678-.043c-7.09-.022-14.18-.033-21.272-.043q-21.87-.032-43.74-.101l.008 3.498a64328 64328 0 0 1 .157 92.303l.002 2.034q.022 16.304.064 32.609.042 16.73.051 33.459.006 10.324.041 20.646c.018 5.278.02 10.555.016 15.832q.001 3.247.018 6.495c.015 2.954.012 5.907.003 8.86.01.859.018 1.717.027 2.6-.038 5.07-.687 8.34-3.387 12.664-3.862 3.686-9.965 3.149-14.974 3.146-.34 0-.34 0-2.067.01-2.244.009-4.488.01-6.733.012l-4.703.01q-4.926.008-9.85.008c-4.196 0-8.39.013-12.586.03q-4.856.016-9.713.013-2.319.001-4.638.013a829 829 0 0 1-6.503 0c-.63.007-1.262.013-1.912.018-5.03-.035-10.439-.44-14.196-4.072-2.57-4.996-2.269-10.331-2.257-15.811l-.006-2.64c-.006-2.935-.004-5.87-.003-8.804l-.009-6.36q-.01-7.833-.01-15.668c0-6.256-.008-12.512-.014-18.768a62341 62341 0 0 1-.027-45.357q-.004-10.727-.01-21.453-.02-36.713-.027-73.426v-9.23l-.003-9.268v-2.321q-.006-37.271-.043-74.543-.037-39.4-.039-78.8V172.94q-.004-17.144-.028-34.287a17980 17980 0 0 1-.009-34.448q.007-10.236-.016-20.472-.013-7.637.005-15.275.004-3.094-.01-6.188c-.01-2.8-.003-5.597.01-8.396-.009-.805-.016-1.61-.024-2.44.054-5.865 1.131-10.605 4.895-15.31 2.99-2.242 5.842-2.251 9.428-2.256m1518.775-.158a1145 1145 0 0 1 9.977-.045l5.32-.022q5.577-.017 11.152-.014c4.757 0 9.514-.027 14.27-.062 3.664-.022 7.327-.026 10.99-.025q2.63-.002 5.26-.027c2.456-.019 4.91-.013 7.367 0 .72-.013 1.44-.024 2.182-.035 5.127.063 7.776 1.3 11.779 4.52 1.529 1.921 1.529 1.921 2.649 3.964l1.33 2.378c.232.428.232.428 1.396 2.595l1.532 2.763a1012 1012 0 0 1 3.316 6.04c1.858 3.414 3.739 6.816 5.62 10.217q3.566 6.44 7.113 12.89a3153 3153 0 0 0 12.232 22.028l.868 1.55a6685 6685 0 0 0 14.053 24.914c2.79 4.93 5.568 9.865 8.325 14.813 6.324 11.347 12.739 22.625 19.316 33.828 4.173 7.125 8.236 14.304 12.25 21.52 5.674 10.192 11.503 20.284 17.403 30.347 4.526 7.725 8.989 15.487 13.449 23.25 10.493 18.247 10.493 18.247 12.148 19.903l1.187-2.146c7.06-12.759 14.143-25.505 21.4-38.154a2819 2819 0 0 0 10.663-18.763 4814 4814 0 0 1 15.71-27.598 2570 2570 0 0 0 15.027-26.637c4.285-7.687 8.678-15.304 13.138-22.89 4.952-8.425 9.706-16.934 14.343-25.535 4.197-7.747 8.624-15.346 13.095-22.936 5.234-8.907 10.248-17.929 15.2-26.995 2.833-5.169 5.735-10.294 8.804-15.327l1.564-2.57c2.596-3.402 5.376-6.814 9.676-7.91 2.057-.173 4.06-.193 6.123-.155.772-.005 1.543-.01 2.338-.017 2.536-.01 5.07.013 7.607.04h5.312c3.706 0 7.41.02 11.116.051 4.74.04 9.482.044 14.223.036 3.655-.003 7.31.01 10.964.026q2.622.01 5.244.01c2.446.001 4.89.023 7.337.05l2.173-.009c4.695.08 7.796.832 11.756 3.43 2.778 3.791 2.278 8.138 2.252 12.632l.009 2.681c.007 2.986 0 5.971-.007 8.957l.01 6.461q.01 7.04.002 14.08c-.008 6.98-.004 13.96.002 20.938q.014 18.696.004 37.391-.007 16.36-.004 32.721v2.191l.002 8.802q.007 41.304-.01 82.61-.014 36.714 0 73.43.018 41.227.01 82.456l-.002 8.786v2.185q-.004 16.353.005 32.705.01 18.588-.007 37.177-.009 10.41.002 20.82c.005 5.173-.001 10.347-.01 15.52q-.004 3.15.003 6.298c.007 2.842 0 5.683-.01 8.524l.015 2.503c-.046 6.936-.046 6.936-2.266 10.131-4.027 3.644-9.966 3.152-15.081 3.161l-2.101.015q-3.422.02-6.845.027l-4.778.017q-5.003.014-10.004.02c-4.265.005-8.53.03-12.794.058q-4.932.025-9.865.025-2.358.005-4.716.024c-2.202.017-4.403.015-6.604.01l-1.951.027c-4.476-.04-7.497-.978-11.261-3.384-3.484-3.647-4.5-5.885-4.507-10.91l-.02-1.752c-.016-1.937-.004-3.873.008-5.809a1474 1474 0 0 0-.022-4.208c-.021-3.854-.016-7.708-.007-11.562.004-4.156-.014-8.312-.03-12.468q-.032-10.8-.03-21.602c.002-10.41-.018-20.82-.044-31.232q-.06-25.335-.077-50.67a40385 40385 0 0 0-.07-52.29l-.03-15.22A110736 110736 0 0 1 1905 223l-1.174 2.104q-2.21 3.96-4.423 7.917l-1.893 3.392A1209 1209 0 0 1 1884 260a1268 1268 0 0 0-14.25 24.937c-4.203 7.547-8.46 15.056-12.865 22.487-3.716 6.27-7.37 12.575-11.01 18.888l-.958 1.661a5502 5502 0 0 0-12.964 22.62 6765 6765 0 0 1-7.001 12.24 1860 1860 0 0 0-5.896 10.383 1321 1321 0 0 1-3.785 6.647 647 647 0 0 0-2.58 4.588l-1.605 2.795-1.373 2.427c-3.072 4.174-5.205 6.92-10.564 7.79-3.632.2-7.231.233-10.867.201q-2.018.005-4.034.014a765 765 0 0 1-8.433-.027 667 667 0 0 0-10.772.018c-2.775.018-5.55.013-8.324 0q-1.986-.006-3.971.012c-11.595.08-11.595.08-15.394-2.878-2.355-2.507-4.102-5.29-5.73-8.319l-.866-1.588c-.931-1.71-1.844-3.428-2.758-5.146a1587 1587 0 0 0-1.974-3.633 2066 2066 0 0 1-4.05-7.47c-2.96-5.474-5.995-10.906-9.038-16.335l-.868-1.55c-4.834-8.643-9.804-17.2-14.818-25.739-4.198-7.167-8.278-14.39-12.314-21.648a1029 1029 0 0 0-14.971-25.995 1819 1819 0 0 1-12.53-21.443l-1.71-2.967a6964 6964 0 0 1-11.976-20.906c-.555-.97-1.11-1.94-1.68-2.94L1638 222v2.18c-.014 42.612-.053 85.225-.126 127.837l-.026 15.344-.005 3.085c-.027 16.496-.036 32.991-.04 49.486q-.004 25.382-.063 50.763a9625 9625 0 0 0-.023 31.333 4804 4804 0 0 1-.035 21.474c-.016 4.133-.023 8.265-.008 12.397q.018 5.674-.025 11.348-.01 2.054.008 4.107c.09 11.501.09 11.501-3.048 15.446-4.481 3.78-8.95 3.351-14.583 3.361l-2.066.015q-3.368.02-6.733.027l-4.704.017q-4.924.014-9.85.02c-4.195.005-8.39.03-12.585.058q-4.857.025-9.713.025-2.319.005-4.638.024c-2.168.017-4.336.015-6.504.01l-1.911.027c-5.35-.05-9.988-1.518-14.197-4.884-1.95-2.6-2.25-5.058-2.253-8.194l-.01-2.27c0-.823.003-1.646.004-2.494l-.007-2.66c-.007-2.969-.006-5.938-.006-8.906l-.011-6.417q-.014-7.92-.015-15.839-.006-9.481-.021-18.965c-.021-15.279-.031-30.559-.04-45.839l-.015-21.678q-.028-37.09-.04-74.182l-.001-4.657-.001-2.334-.004-11.703-.001-2.346c-.007-25.11-.031-50.22-.063-75.33q-.052-39.809-.058-79.616l-.001-8.736v-2.172q-.006-17.325-.04-34.65-.03-17.406-.015-34.812a5286 5286 0 0 0-.023-20.692c-.015-5.145-.01-10.29.005-15.435q.003-3.128-.014-6.257a799 799 0 0 1 .01-8.48l-.031-2.474c.066-5.376 1.098-8.188 4.526-12.362 3.475-2.666 7.497-2.296 11.703-2.29m628.445.036 3.17-.018 3.48.012q1.85-.004 3.7-.012c3.39-.01 6.78-.008 10.172-.004 3.655.003 7.31-.006 10.967-.014q10.744-.017 21.488-.012 8.731.002 17.462-.004l2.509-.002 5.045-.004q23.665-.013 47.332-.002c14.439.005 28.878-.006 43.318-.025q22.23-.03 44.46-.024 12.485.005 24.969-.015 10.628-.019 21.255-.001 5.424.011 10.848-.005 4.963-.016 9.928.006a624 624 0 0 0 5.297-.018l3.179.022h2.74c4.112.608 6.753 2.398 9.32 5.613 1.483 3.377 1.635 6.33 1.6 9.95.004.353.004.353.017 2.136.013 2.319.005 4.638-.005 6.957l.008 4.852q.006 5.079-.016 10.158c-.017 4.334-.007 8.668.01 13.003.012 3.339.008 6.678 0 10.016q-.003 2.397.008 4.794a600 600 0 0 1-.021 6.706l.019 1.99c-.071 5.135-1.432 8.159-4.972 11.817-3.646 2.07-6.991 1.787-11.116 1.743l-2.683.008c-2.973.005-5.945-.012-8.918-.028h-6.386q-6.878.003-13.757-.023c-6.63-.025-13.26-.033-19.89-.036q-16.137-.012-32.272-.055-15.674-.043-31.347-.062l-1.972-.002-16.981-.02c-24.371-.028-48.742-.088-73.113-.143v118l27.606-.175q8.648-.04 17.295-.07c9.154-.028 18.308-.063 27.462-.132q10-.076 20-.093c3.529-.006 7.059-.022 10.589-.058a789 789 0 0 1 9.97-.037q1.827-.001 3.655-.031c10.35-.155 10.35-.155 13.625 2.882 2.994 4.52 2.95 8.278 2.959 13.59l.015 2.072q.021 3.382.027 6.763l.018 4.716q.015 4.94.019 9.88c.006 4.212.03 8.424.058 12.636.019 3.246.024 6.493.026 9.739q.004 2.33.024 4.657c.017 2.176.015 4.35.009 6.526l.028 1.928c-.042 4.447-.892 7.519-3.385 11.207-5.394 4.11-11.528 3.403-18.064 3.34l-3.727.002c-3.314 0-6.63-.017-9.943-.038-3.115-.017-6.23-.018-9.345-.02-9.1-.015-18.197-.057-27.296-.096L2268 330v150l47.914-.07q14.999-.016 29.996-.027l15.755-.012 1.994-.002q15.937-.015 31.875-.043 16.358-.029 32.714-.034 10.093-.003 20.186-.027c5.16-.012 10.319-.013 15.479-.011q3.175 0 6.349-.012c2.889-.01 5.776-.007 8.665-.002l2.54-.018c5.29.027 10.102.247 14.346 3.758 2.658 3.358 2.335 6.544 2.332 10.64l.01 2.228q.013 3.657.013 7.312l.01 5.075q.009 5.323.007 10.647c0 4.549.014 9.097.03 13.646.012 3.495.014 6.99.014 10.485q0 2.516.013 5.03c.01 2.347.007 4.693 0 7.039.007.693.012 1.386.018 2.1-.023 3.6-.25 6.26-2.26 9.298-3.603 3.26-8.698 3.126-13.315 3.129l-3.207.01-3.504-.005-3.737.007q-5.13.008-10.261.005-5.535.001-11.07.01-10.841.01-21.683.012-8.81 0-17.623.005-24.978.014-49.956.013h-5.443q-21.857 0-43.714.023-22.439.02-44.878.02-12.6-.001-25.198.014-10.725.013-21.451.004-5.472-.006-10.945.005-5.01.012-10.02-.002-2.67-.001-5.34.013c-12.348-.053-12.348-.053-16.78-4.296-2.741-3.594-2.428-7.362-2.378-11.72l-.018-2.684c-.014-2.983 0-5.964.013-8.947q-.006-3.231-.02-6.462-.018-7.036-.002-14.072a5406 5406 0 0 0-.005-20.926c-.021-12.457-.02-24.914-.008-37.371q.015-16.352.008-32.703l-.001-2.19-.004-8.8c-.012-27.525-.001-55.05.02-82.575q.029-36.696-.001-73.392-.034-41.211-.018-82.422l.004-8.784v-2.184q.006-16.344-.01-32.686c-.011-12.387-.01-24.773.013-37.16q.02-10.403-.002-20.805c-.01-5.172 0-10.343.019-15.515q.008-3.146-.007-6.292c-.012-2.841 0-5.682.019-8.523l-.03-2.494c.052-3.85.267-5.823 2.315-9.182 3.732-3.495 6.282-4.327 11.366-4.332m1538.233.123 3.406-.012 3.758.003 3.98-.01q5.478-.01 10.958-.01c3.937-.001 7.873-.01 11.81-.016q12.918-.019 25.835-.024l16.125-.011q22.317-.02 44.633-.026l2.886-.001h2.894l5.804-.002h2.908c15.554-.004 31.108-.022 46.663-.045q23.943-.036 47.888-.038 13.448.002 26.895-.024a7284 7284 0 0 1 22.9-.013c3.895.004 7.791.003 11.686-.011q5.349-.017 10.698 0 1.935.005 3.87-.01c12.063-.075 12.063-.075 17.022 3.38 2.512 3.259 2.284 6.86 2.26 10.818 0 .338 0 .338.01 2.05.008 2.233.002 4.464-.005 6.696l.006 4.662q.005 4.883-.01 9.765c-.012 4.169-.005 8.339.007 12.509q.009 4.812 0 9.625-.003 2.306.004 4.612a866 866 0 0 1-.013 6.448l.012 1.92c-.033 3.472-.37 5.959-2.27 8.896-29.919 27.069-80.655 3-121 3v368h114c7 3 7 3 8.417 4.763.786 3.02.885 5.937.888 9.038.01.675.017 1.35.025 2.046.024 2.227.033 4.454.04 6.68l.027 4.656q.024 4.875.027 9.752c.006 4.16.043 8.32.09 12.48.03 3.206.036 6.41.037 9.614q.006 2.302.038 4.6c.027 2.149.022 4.294.01 6.44l.044 1.91c-.058 3.535-.683 5.438-3.119 7.892-.417.35-.417.35-2.525 2.129l-1 1a92 92 0 0 1-5.185.135l-3.427.013h-3.813l-4.014.01q-5.54.014-11.08.017-5.966.008-11.93.022c-9.615.02-19.228.03-28.84.039l-13.57.015q-22.545.027-45.088.039l-11.709.006h-2.94c-15.72.009-31.439.035-47.159.067q-24.19.049-48.38.054c-9.059.003-18.119.01-27.178.037q-11.573.034-23.144.02c-3.938-.005-7.876-.003-11.814.017q-5.405.025-10.81 0-1.957-.003-3.915.015c-1.772.015-3.544.003-5.316-.011l-2.984.003c-4.077-.75-6.647-2.991-9-6.345-.957-2.925-.959-5.51-.963-8.586l-.01-1.928c-.009-2.097-.004-4.194.003-6.291q0-2.193-.006-4.386-.004-4.593.011-9.187c.011-3.918.005-7.837-.007-11.755q-.009-4.53 0-9.057.003-2.167-.005-4.333c-.005-2.023.003-4.045.014-6.067l.005-3.483c.321-3.892 1.203-6.8 3.691-9.83C3748.564 463.349 3797.14 486 3837 486V117h-116c-5.856-4.684-5.856-4.684-7-9-.254-3.035-.254-3.035-.259-6.455l-.01-1.9a848 848 0 0 1 .003-6.176q0-2.157-.006-4.314-.004-4.516.011-9.028c.011-3.85.005-7.7-.007-11.55q-.009-4.453 0-8.905.003-2.13-.005-4.258c-.005-1.986.003-3.972.014-5.958l.005-3.42c.324-3.87 1.217-6.774 3.691-9.786 3.102-2.481 6.143-2.376 9.944-2.381m1660.764-.123 3.169-.018 3.478.012q1.848-.004 3.697-.012c3.389-.01 6.777-.008 10.166-.004 3.653.003 7.307-.006 10.961-.014q10.738-.017 21.477-.012 8.728.002 17.455-.004l2.508-.002 5.043-.004q23.659-.013 47.318-.002 21.648.005 43.296-.025 22.223-.03 44.444-.024 12.479.005 24.957-.015 10.624-.019 21.248-.001 5.42.011 10.841-.005 4.964-.016 9.926.006c1.763.004 3.526-.007 5.289-.018 5.675.039 9.823.162 14.582 3.396 2.603 3.33 2.302 7.184 2.306 11.244l.026 2.189c.024 2.385.032 4.769.039 7.153l.027 4.985q.024 5.222.028 10.445c.005 4.455.043 8.908.088 13.363.03 3.43.037 6.863.038 10.294q.006 2.463.038 4.926c.027 2.3.022 4.598.009 6.899l.045 2.04c-.07 4.572-1.303 6.945-4.376 10.316-2.265 2.048-3.938 2.27-6.887 2.27l-2.293.006-2.529-.01-2.678.003q-4.468.001-8.936-.01h-6.385q-6.887.002-13.774-.007-9.957-.011-19.914-.012-16.154-.004-32.308-.018-15.694-.014-31.389-.021h-1.973l-16.994-.007c-24.403-.01-48.805-.03-73.208-.048l1 117 27.168.079q8.511.036 17.021.082c9.01.048 18.019.093 27.028.11q9.841.019 19.683.084 5.211.037 10.422.037 4.906.001 9.812.05c1.771.012 3.541.005 5.311-.003 8.672.114 8.672.114 11.683 2.346 3.694 4.372 4.168 7.646 4.147 13.29l.015 2.136c.014 2.325.013 4.649.011 6.973l.013 4.857q.01 5.088.002 10.176c-.006 4.342.011 8.684.034 13.026.015 3.343.016 6.686.012 10.03q.001 2.4.016 4.802c.013 2.24.006 4.48-.006 6.72l.023 1.995c-.048 4.24-.677 6.927-3.395 10.21-5.487 4.039-11.478 3.403-18.064 3.34q-1.864 0-3.727.002c-3.315 0-6.629-.017-9.944-.038-3.115-.017-6.229-.018-9.344-.02-9.099-.015-18.197-.057-27.296-.096L5467 330v150l47.879-.07q14.991-.016 29.982-.027l15.749-.012 1.993-.002q15.927-.015 31.854-.043 16.349-.029 32.697-.034 10.086-.003 20.172-.027a5701 5701 0 0 1 15.474-.011q3.172 0 6.343-.012c2.888-.01 5.775-.007 8.663-.002l2.532-.018c5.492.028 11.235.158 15.573 3.913 1.519 3.273 1.524 6.34 1.509 9.88l.026 2.283c.023 2.487.024 4.973.023 7.46l.023 5.193q.019 5.44.009 10.882c-.006 4.645.025 9.289.065 13.934.026 3.575.029 7.15.025 10.725q.003 2.568.029 5.137a431 431 0 0 1-.005 7.187l.04 2.137c-.06 3.57-.429 5.756-2.881 8.444-4.154 3.12-8.006 3.208-13.089 3.215l-3.207.012-3.504-.003-3.737.009q-5.131.011-10.261.01-5.535.005-11.07.017-12.099.018-24.198.024l-15.108.01q-20.913.021-41.828.027h-5.412l-5.436.003h-2.723c-14.572.004-29.143.022-43.714.045q-22.439.036-44.878.037-12.599-.001-25.198.025-10.726.024-21.451.012c-3.648-.003-7.296-.002-10.945.012q-5.01.017-10.02-.001c-1.78-.003-3.56.009-5.34.02-7.142-.043-11.511-.332-16.779-5.457-2.549-3.986-2.432-7.016-2.379-11.653l-.018-2.673c-.015-2.97-.001-5.94.013-8.91q-.007-3.218-.019-6.434-.02-7.008-.004-14.014c.015-6.946.008-13.892-.005-20.84-.021-12.404-.019-24.81-.007-37.215q.014-16.285.008-32.57l-.001-2.181-.004-8.764c-.012-27.415-.001-54.83.02-82.244q.028-36.544-.002-73.09a68063 68063 0 0 1-.013-90.836l.001-2.176q.005-16.275-.011-32.55-.019-18.504.013-37.008.019-10.36-.003-20.72c-.01-5.151.001-10.302.02-15.454q.007-3.132-.007-6.264c-.012-2.831 0-5.661.019-8.492l-.029-2.476c.071-5.368.995-8.27 4.532-12.37 3.007-2.12 5.517-2.251 9.145-2.254"/></svg>