<svg preserveAspectRatio="xMidYMid meet" viewBox="0 0 231.1 48" xmlns="http://www.w3.org/2000/svg"><path d="m43.2 13.7c-1.8-8-6.8-13.7-16.4-13.7h-.6c-10.4 0-18.4 5.4-22.6 13.7-2.4 4.2-3.6 9.3-3.6 14.6 0 10.4 5.7 17 13.1 18.8 1.5.3 3 .6 4.5.6 1.8 0 3.3-.3 4.8-.6 3-.9 5.4-2.4 7.5-4.5v4.5c0 .3.3.3.3.3h6.6l.3-.3 4.5-22.7c0-.3-.3-.6-.6-.6h-16.3c-.3 0-.3.3-.6.3l-1.2 6v.3c0 .3.3.3.3.3h8c-1.8 4.8-5.7 8.9-12.2 8.9s-10.4-4.7-10.4-12.5c0-5.1 1.8-10.1 4.5-13.4s6.9-5.7 11.6-5.7c4.5 0 7.2 2.1 8.9 5.7.3.9.9 1.8 1.2 3 0 .3.3.3.3.3l7.8-2.1.3-.3zm17.6-13.1c0-.3-.3-.6-.6-.6h-7.5c-.3 0-.3.3-.6.3l-8.9 46.2v.3c0 .3.3.3.3.3h7.8l.3-.3zm22.1 36.4c-1.8 2.4-4.2 3.6-7.5 3.6-3.9 0-6.6-3.3-6.6-8.3 0-3.6.9-6.3 2.4-8.6 1.8-2.4 4.2-3.6 7.5-3.6 3.9 0 6.6 3.3 6.6 8.3 0 3.8-.9 6.5-2.4 8.6m.9-23.3c-1.5-.3-2.7-.6-4.5-.6s-3.6.3-5.4.6c-3 .6-5.7 2.1-8.3 4.8-3.9 3.9-5.7 8.6-5.7 15.2s3.9 11.9 10.1 13.7c1.5 0 3 .3 4.5.3 1.8 0 3.6-.3 5.4-.6 3-.6 5.7-2.1 8.3-4.8 3.9-3.9 5.7-8.6 5.7-15.2.3-6.5-3.6-11.9-10.1-13.4m37.8 4.8c-1.2-2.1-3.6-3.9-6.6-4.8-1.2-.3-2.4-.6-3.6-.6-1.5 0-3 .3-4.2.6-4.8 1.2-7.5 4.8-7.5 9.8 0 4.5 3 7.2 6.9 8.9 3.9 1.8 5.7 3 5.7 5.1 0 2.4-2.1 3.6-4.2 3.6q-4.95 0-6.3-5.4c0-.3-.3-.3-.6-.3h-.3l-6.3 2.7c-.3 0-.3.3-.3.3.9 3.3 3.6 7.5 8.6 8.9 1.2.3 2.4.6 3.9.6 1.8 0 3.3-.3 4.8-.6 5.1-1.2 8.3-4.8 8.3-11 0-4.8-3.6-6.9-6.9-8.6-2.4-1.2-5.7-2.1-5.7-4.5 0-1.8 1.5-3 3.3-3s3.6.9 4.8 2.4l.6.4h.3l5.1-3.6c.2-.6.2-.6.2-.9m20.9-4.8c-1.2-.3-2.4-.6-3.6-.6-1.5 0-3 .3-4.2.6-4.8 1.2-7.5 4.8-7.5 9.8 0 4.5 3 7.2 6.9 8.9 3.9 1.8 5.7 3 5.7 5.1 0 2.4-2.1 3.6-4.2 3.6-3.3 0-5.4-2.1-6.3-5.4 0-.3-.3-.3-.3-.3h-.3l-6.6 2.1c-.3 0-.3.3-.3.3.9 3.3 3.6 7.5 8.6 8.9 1.2.3 2.4.6 3.9.6 1.8 0 3.3-.3 4.8-.6 5.1-1.2 8.3-4.8 8.3-11 0-4.8-3.6-6.9-6.9-8.6-2.4-1.2-5.7-2.1-5.7-4.5 0-1.8 1.5-3 3.3-3s3.6.9 4.8 2.4l.3.3h.3l5.4-3.9.3-.3v-.3c-1.3-1.7-3.7-3.5-6.7-4.1m21.5 0h-7.5c-.3 0-.3 0-.6.3l-6.3 32.5v.3c0 .3.3.3.3.3h7.8l.3-.3 6.3-32.8c.3-.3 0-.3-.3-.3m11.6 12.8c1.5-3.6 4.8-6.3 8.9-6.3q6.3 0 6.3 6.3zm14.3-12.8c-1.2-.3-2.7-.6-4.2-.6-1.8 0-3.3.3-4.8.6-9.2 2.1-15.2 10.4-15.2 19.4 0 7.8 4.2 12.8 10.1 14.3 1.2.3 2.7.6 4.2.6 1.8 0 3.6-.3 5.1-.6 4.8-1.2 8-3.9 11.3-8.3v-.3c0-.3 0-.3-.3-.3l-5.7-3h-.3c-.3 0-.3 0-.3.3-2.4 3.6-5.1 5.4-8.9 5.4-4.5 0-6.9-3-6.9-6.6v-1.2h24.1l.3-.3c.3-.9.9-3.3.9-6.3-.1-6.5-3.4-11.6-9.4-13.1m36.1 7.5h.6s.3 0 .3-.3l2.4-6.6v-.3c0-.3 0-.3-.3-.3s-.3 0-.6-.3c-.9-.3-1.8-.6-3.6-.6-1.2 0-2.4.3-3.6.6-2.4.9-4.8 2.4-6.9 5.1l.9-4.5c0-.3-.3-.6-.6-.6h-7.5c-.3 0-.3.3-.6.3l-6.3 32.5v.3c0 .3.3.3.3.3h7.8l.3-.3 2.4-11.6c2.2-10.5 7.8-14.9 12-14.9 1.2.6 2.1.6 3 1.2m-64.1-20.6c-2.7 0-4.8 2.1-4.8 4.8s2.1 4.8 4.8 4.8 4.8-2.1 4.8-4.8-2.1-4.8-4.8-4.8m64.4 37.6c-2.7 0-4.8 2.1-4.8 4.8 0 1.8.9 3.3 2.4 4.2.6.3 1.5.6 2.4.6s1.8-.3 2.4-.6c1.5-.9 2.4-2.4 2.4-4.2 0-2.8-2.1-4.8-4.8-4.8"/></svg>