<svg xmlns="http://www.w3.org/2000/svg" viewBox="0 0 1500 437"><path d="M599.53 10.58c12.33-4.01 25.52-5.46 38.43-4.12 14.81.76 29.86 4.58 42.12 13.21 11.8 7.97 19.48 20.85 23.2 34.4 1.16 4.72 2.08 9.56 1.74 14.44-12.65.16-25.32.22-37.97-.03-.33-8.3-3.71-17.02-10.6-22.03-5.18-4.33-11.92-5.95-18.38-7.25-9.89-.47-20.46-1.22-29.46 3.75-6.38 3.22-11.65 9.68-11.97 17.02-.72 6.23 2.17 12.63 6.88 16.66 8.1 5.79 18.01 8.07 27.6 10.1 16.79 3.3 34.03 5.97 49.56 13.56 7.75 4.31 15.27 9.51 20.69 16.64 6.6 9.63 10.87 21.44 9.33 33.23-1.03 14.08-6.14 28.28-16.13 38.51-12.26 13.76-30.6 20.51-48.57 22.41-4.36.06-8.69.66-13.04.86-11.14-.41-22.33-1.95-32.79-5.94-14.27-4.47-27.05-13.35-36.46-24.92-7.32-10.33-12.25-22.83-11.98-35.62 12.86-.2 25.74-.15 38.6-.01 1.49 10.4 7.84 20.18 17.17 25.19 15.14 8.78 35.04 10.85 50.77 2.47 12.43-6.04 17.04-23.98 8.61-35.03-3.61-3.94-8.48-6.51-13.35-8.56-11.86-4.57-24.32-7.26-36.73-9.85-8.18-1.46-16.32-3.32-24.12-6.24-11.25-4.84-21.8-12.32-28.03-23.1-11.39-19.16-7.87-45.3 7.36-61.38 6.88-8.96 17.24-14.26 27.52-18.37m803.38-3.97c9.36-1.39 18.83-.28 28.18.62 10.09 1.54 20.2 4.25 29.02 9.53 18.2 10.3 29.52 31.04 29.52 51.81-12.59.07-25.18.1-37.76-.02-.84-7.23-3.01-14.77-8.32-20.01-8.03-7.71-19.72-10.02-30.5-9.62-7.86-.39-15.94 1.29-22.59 5.6-3.95 3.15-7.6 7.18-8.83 12.2-2.37 8.36 2.01 17.96 9.65 21.97 10.27 5.85 22.15 7.55 33.59 9.78 17.97 3.67 37.04 7.27 51.66 19.16 8.12 5.59 13.39 14.39 16.64 23.52 3.64 11.53 2.51 24.24-1.14 35.63-4.81 15.73-16.93 28.6-31.48 35.91-14.05 7.13-30.01 9.06-45.56 9.17-20.21-1.08-40.92-7.11-56.54-20.43-13.98-10.81-21.69-28.37-22.56-45.8 6-.6 12.05-.13 18.08-.28 6.98.14 13.98-.27 20.96.23 1.44 10.39 7.92 20.1 17.22 25.08 15.01 8.74 34.63 10.77 50.33 2.68 10.74-5.4 16.4-19.41 11.62-30.57-2.55-6.71-9.32-10.41-15.57-13.07-12.39-4.86-25.47-7.6-38.47-10.28-8.08-1.53-16.18-3.31-23.81-6.41-8.32-3.88-16.44-8.83-22.25-16.08-15.17-17.33-14.96-45.09-1.31-63.24 4.19-5.46 8.78-10.81 14.62-14.58 10.57-7.09 22.9-11.47 35.6-12.5M5.96 10.32c12.02-.14 24.04.03 36.06-.08 1.67-.05 3.32.17 4.97.42.05 26.75-.03 53.5.05 80.24 22.63.16 45.27.14 67.9.02.1-26.79.04-53.58.04-80.37 13.65-.6 27.36-.18 41.02-.23.02 65.64-.05 131.28.03 196.91-13.67-.01-27.34.09-41.01-.06-.23-26.93.3-53.89-.26-80.81-22.54.18-45.08.15-67.61.01-.38 26.93.04 53.88-.21 80.81-13.66.18-27.32-.02-40.99.1.04-65.66.04-131.31.01-196.96m242.19 3.94c.46-1.38 1.07-2.7 1.75-3.98 13.05.03 26.1-.04 39.16.03 2.42-.21 2.35 2.9 3.15 4.46 22.99 64.13 46.11 128.22 69.07 192.36-13.48.27-26.98.04-40.46.13-4.76-13.57-8.92-27.39-14.17-40.77-24.42.14-48.85.07-73.27.03-4.9 13.38-9.39 26.94-13.78 40.5-13.54.48-27.12.18-40.68.16 22.93-64.36 46.22-128.59 69.23-192.92m20.76 46.27c-8.06 23.41-15.56 47.01-23.82 70.35 16.64.22 33.28.11 49.92.06-7.85-22.96-15.43-46.02-23.31-68.98-.7-1.78-.54-3.74-1.03-5.57-1.62.04-1.07 2.99-1.76 4.14m104.07-49.87c13.66.02 27.33-.23 40.99.15.12 44.4.03 88.81.05 133.21.74 9.34 3.2 19.07 9.83 26.04 5.1 4.28 11.46 7.16 18.1 7.86 4.58.1 9.14.93 13.71.18 8.28.04 16.57-3.22 22.53-8.97 8.58-9.91 9.3-23.68 9.12-36.16.1-40.77-.23-81.56.17-122.32 13.56-.03 27.12-.07 40.69.02.22 30.44.04 60.89.09 91.33-.09 15.23.23 30.47-.25 45.7-1.15 10.09-3.4 20.2-7.76 29.42-5.13 9.47-12.36 18.03-21.72 23.55-14.5 8.91-31.88 11.13-48.58 11.37-12.94-.44-26.13-1.64-38.16-6.79-14.02-5.5-25.51-16.72-31.86-30.31-3.95-9.2-5.9-19.14-6.94-29.05-.01-45.08.02-90.15-.01-135.23m439.99-.26c13.68-.14 27.41-.37 41.08.12-.06 53.81 0 107.62-.03 161.43 31.11.03 62.22.11 93.33-.02.01 11.78.03 23.55-.01 35.32-44.8-.04-89.59.04-134.38-.03.06-65.61.05-131.22.01-196.82m219.45 3.16c.57-1.2.71-3.53 2.6-3.22 11-.16 22 .01 33.01-.07 2.27-.04 4.58-.1 6.84.43 23.26 65.56 47.1 130.94 70.42 196.48-13.47.15-26.93.02-40.39.08-4.66-13.5-9.25-27.03-13.83-40.55-24.53-.37-49.08 0-73.62-.19-4.96 13.36-9.45 26.93-13.81 40.5-13.56.49-27.16.15-40.73.17 23.09-64.57 46.39-129.07 69.51-193.63m-3.25 117.31c16.61.29 33.23.02 49.85.13-8.28-24.63-16.61-49.24-24.82-73.89-8.59 24.5-16.5 49.24-25.03 73.76M1163.58 10.4c27.14-.31 54.29-.04 81.44-.13 13.81 0 28.02 1.12 40.76 6.87 6.82 3.91 13.86 8.4 17.85 15.41 2.22 4.07 4.13 8.35 5.31 12.85 1.92 6.35.92 13.05 1.12 19.57-.87 8.48-3.58 17.19-9.58 23.48-4.43 5.17-10.31 8.81-16.37 11.78 8.52 2.71 16.77 7.07 22.62 13.99 7.2 7.89 10.9 18.42 12.22 28.88.19 6.8.64 13.74-1.11 20.38-2.25 11.03-8.35 21.13-16.71 28.61-12.89 11.15-30.44 15.32-47.16 15.08-30.13.16-60.27.05-90.41.06-.04-65.61-.07-131.22.02-196.83m40.99 32.8c.22 16.08-.03 32.17.11 48.25 12.1.19 24.21.01 36.32.1 6.43-.42 13.35-.1 19-3.76 7.87-4.14 11.34-13.39 11.73-21.85-.2-5.89-1.87-12.32-6.62-16.2-5.67-5.2-13.74-6.1-21.06-6.73-13.16.11-26.33-.24-39.48.19m.02 84.77c.14 15.32-.1 30.65.15 45.97 16.76.09 33.53.12 50.3-.02 7.59-1.04 15.98-3.62 20.26-10.5 4.29-6.33 4.05-14.29 3.5-21.58-1.05-4.43-2.5-9.26-6.33-12.09-5.87-5.03-14.07-5.98-21.5-5.71-15.06-.01-30.12-.12-45.17.04-2.05-.17-.92 2.72-1.21 3.89M956.57 281.44c6.91-2.43 14.25-2.64 21.47-3.22 10.73.03 21.64 1.55 31.44 6.14 17.34 6.99 30.26 24.02 31.99 42.67-10.15-.03-20.31-.02-30.46-.01-2.26-7.41-6.93-14.23-13.85-17.96-11.71-5.81-26.67-5.8-37.68 1.61-6.04 4.73-10.98 11.09-13.25 18.48-6.34 17.27-5.91 36.84.83 53.92 2.3 6.39 6.89 11.61 11.9 16.05 8.11 6.15 18.84 6.92 28.58 5.44 8.53-2.04 16.34-7.87 19.88-16.01 2.17-4.65 3.71-9.66 3.84-14.83-10.11-.33-20.25.28-30.33-.33.14-8.79 0-17.59.09-26.38 20.84-.07 41.69.02 62.54-.05.22 27.46.14 54.92.03 82.37-8.21-.03-16.42-.03-24.62 0-.04-4.72.14-9.44-.15-14.15-8.67 10.64-22.15 17.02-35.84 17.32-22.06 1.33-45.99-6.85-59.24-25.29-11-14.59-14.12-33.39-14.47-51.24.33-14.66 3.01-29.58 10.02-42.6 7.51-15 20.96-27.37 37.28-31.93m273.38 10.61c14.06-11.57 33.21-15.09 50.96-13.29 9.77.48 19.23 3.74 27.85 8.25 14.3 8.3 24.92 23.36 26.43 39.99-10.27-.03-20.54.14-30.8-.09-1.88-7.66-6.99-14.55-14.1-18.08-9.52-4.59-20.96-5.28-30.85-1.49-7.08 2.66-12.38 8.55-16.45 14.71-8.87 17.69-10 38.93-3.49 57.58 2.21 7.76 7.21 14.5 13.37 19.6 8.15 6.2 18.96 6.79 28.72 5.24 8.49-2.13 16.3-7.98 19.65-16.21 1.9-4.64 4.05-9.6 3.53-14.7-9.94.07-19.89.25-29.82-.06.09-8.83.07-17.67-.02-26.5 20.75-.08 41.5.07 62.25-.07-.06 27.48-.09 54.97 0 82.45-8.15-.26-16.31.12-24.45-.11-.05-4.69-.04-9.37 0-14.05-5.98 6.59-13.35 12.04-21.87 14.83-8.63 2.72-17.89 3.19-26.83 2.11-18.15-1.66-36.33-10.23-46.92-25.44-6.26-8.42-10.01-18.49-11.97-28.73-3.75-18.52-2.74-38.09 3.87-55.85 4.48-11.46 11.2-22.37 20.94-30.09M5.99 281.46c20.65-.11 41.3 0 61.96-.06 10.92.26 22.53.46 32.15 6.35 7.69 3.67 12.48 11.29 15.16 19.1 2.76 9.28 1.92 19.48-1.82 28.37-2.61 6.1-8.32 9.9-13.59 13.51 5.04 2.57 10.4 5.07 13.92 9.69 9.04 10.08 11.01 24.72 8.54 37.63-1.63 8.17-6.21 15.42-12 21.29-9.49 8.05-22.04 11.88-34.38 11.82-23.33.31-46.66.02-69.99.15.09-49.29 0-98.57.05-147.85m33.06 26.61c-.05 10.97-.07 21.94-.01 32.92 7.99.2 15.98.04 23.97.1 4.3-.16 8.86.47 12.85-1.53 9.21-3.67 12.19-16.59 7.11-24.62-3.95-5.79-11.58-6.22-17.92-6.77-8.66-.21-17.33-.01-26-.1m-.15 93.63c7.66.63 15.36.13 23.04.3 7.38-.19 15.36 1.07 22.01-2.96 3.85-1.94 5.72-6.15 6.84-10.08.58-5.57.56-11.96-3.29-16.45-4.08-3.87-10.1-4.72-15.5-4.51-10.96.18-21.97-.31-32.9.23-.26 11.13.13 22.32-.2 33.47m90.76-120.03c11.09-.08 22.2-.37 33.27.16 10.54 19.22 21.08 38.46 31.92 57.51 11.07-18.96 21.16-38.54 32.23-57.51 10.81-.75 21.82-.06 32.71-.34-.4 2.58-2.07 4.68-3.21 6.97-14.88 27.5-29.61 55.08-44.48 82.58-1.42 2.42-.66 5.32-.8 7.97-.08 16.79.05 33.59-.14 50.38-10.9-.15-21.8-.12-32.7-.01-.2-18.45-.01-36.92-.1-55.38.01-1-.23-1.94-.71-2.81-15.92-29.87-32.22-59.56-47.99-89.52m203.3-.2c11 .05 22.05-.37 33.03.21.1 33.77-.01 67.54.02 101.31.12 5.85-.3 11.71.21 17.55 22.9.1 45.83-.33 68.71.21 0 9.49-.03 18.97-.01 28.46-33.98.21-67.97-.04-101.96.13.02-49.29.03-98.58 0-147.87m168.23.24c5.25-.63 10.54-.15 15.81-.3 5.64.15 11.3-.32 16.92.22 14.15 40.2 28.79 80.24 43.11 120.38 3.11 9.12 6.88 18.03 9.48 27.31-10.82-.11-21.64.06-32.45-.1-3.61-9.95-6.83-20.03-10.3-30.03-17.45.05-34.9-.14-52.35.09-3.36 10.02-6.86 20-10.18 30.03-10.87-.08-21.75.06-32.62-.06 5.39-16.49 11.69-32.69 17.41-49.07 11.65-32.85 23.82-65.53 35.17-98.47m16.29 39.5c-4.97 16.58-11.06 32.81-16.28 49.31 10.89-.07 21.78-.1 32.67 0-5.13-16.54-10.93-32.88-16.39-49.31m84.42-39.58c18.01-.1 36.03-.15 54.04.03 14.96-.18 30.21 4.92 41.17 15.29 17.84 16.92 24.65 43.06 22.04 67.01-1.22 17.16-6.67 34.66-18.28 47.7-9.93 10.79-24.44 16.54-38.91 17.41-20.01.52-40.03.05-60.04.28.11-49.24.15-98.48-.02-147.72m33.2 26.53c-.18 31.3-.12 62.6-.03 93.9 6.67.23 13.34.09 20.02-.06 5.02.35 9.77-1.71 14.3-3.62 4.99-3.11 8.92-7.84 11.83-12.9 5.83-12.99 6.71-27.57 5.52-41.59-.9-6.29-2.85-12.4-5.46-18.19-2.66-5.33-7.08-9.68-12.02-12.93-10.36-5.97-22.73-4.29-34.16-4.61m86.43-26.45c11.07-.13 22.19-.48 33.23.19 10.4 19.39 21.35 38.49 31.82 57.85 10.78-19.41 21.42-38.89 32.35-58.21 10.92.01 21.85-.14 32.78.09-4.13 8.91-9.24 17.35-13.73 26.1-10.68 19.7-21.26 39.45-31.91 59.17-1.27 2.57-3.4 5-3.08 8.06.06 18.11-.04 36.23.06 54.35-11.01-.01-22.03 0-33.05.01-.11-19.06.17-38.14-.15-57.18-15.91-30.24-32.65-60.07-48.32-90.43m390.42-.28c10.68.02 21.37-.14 32.05.09 15.13 41.78 30.07 83.62 45.11 125.43 2.44 7.5 5.78 14.76 7.64 22.43-10.87-.28-21.74.14-32.6-.23-2.86-9.16-6.19-18.16-9.15-27.29-.52-.91-.56-2.89-2.04-2.63-17.12.02-34.26-.28-51.37.16-3.1 9.95-6.85 19.69-9.9 29.66-10.97.57-22 .06-33 .25 16.03-44.81 32.17-89.58 48.26-134.38 1.69-4.49 3.08-9.09 5-13.49m-.41 89c10.79.14 21.59-.1 32.38.13-.58-5-3.07-9.56-4.38-14.4-3.97-11.58-7.65-23.25-11.79-34.77-5 16.47-11.01 32.63-16.21 49.04m292.88-85.58c.61-1.18.64-3.63 2.54-3.39 10.32-.02 20.67-.22 31 .15 15.37 42.81 30.79 85.62 46.13 128.45 2.16 6.44 4.98 12.68 6.63 19.28-10.87-.18-21.74.03-32.6-.13-3.44-10.03-6.62-20.17-10.35-30.09-17.42.14-34.84-.18-52.25.16-3.15 9.95-6.87 19.72-9.85 29.73-10.96.56-22 .19-32.98.21 16.97-48.21 34.6-96.21 51.73-144.37m17.18 37c-5.27 16.27-10.92 32.41-16.24 48.66 10.87-.05 21.73-.15 32.6.01-1.13-5.43-3.47-10.52-5.03-15.83-3.86-10.92-7.03-22.1-11.33-32.84"/></svg>