<svg preserveAspectRatio="xMidYMid meet" xmlns="http://www.w3.org/2000/svg" fill="none" viewBox="0 0 79.318 41.999"><g fill="#000"><path fill-rule="evenodd" d="M33.785 34.703V32.75h-.092l-.026.032c-1.063 1.259-1.952 2.313-4.08 2.313-3.904 0-5.298-4.69-5.298-12.687 0-8.094 1.812-12.58 5.76-12.58a4.14 4.14 0 0 1 3.413 1.754h.091V0h5.395v34.703zm-.231-4.487V14.413c-.233-.44-.795-.783-1.493-.783-1.59 0-2.011 1.024-2.011 8.73 0 7.516.281 8.636 1.871 8.636.793 0 1.353-.34 1.633-.78m30.785-17.967V7.29c-2.054.245-3.924 1.76-4.81 3.7-1.354-1.018-2.566-1.164-3.643-1.164-4.298 0-6.82 3.686-6.82 7.623 0 2.808.56 5.213 2.85 6.86-1.728 1.066-3.085 2.38-3.085 4.673 0 2.004 1.543 3.228 3.225 3.716v.095c-2.055.834-4.16 1.795-4.16 4.487 0 1.551 1.777 4.719 7.99 4.719 6.305 0 8.453-3.46 8.453-6.931 0-5.143-4.3-6.083-7.527-6.79-1.94-.424-3.493-.763-3.493-1.88 0-.488.093-.88.515-1.123.605.197 1.259.243 1.912.243 4.249 0 6.912-3.685 6.912-7.92 0-2.017-.467-3.544-1.59-5.01.469-.386 1.17-.63 1.638-.63.37 0 1.117.098 1.633.29m-8.593 21.425c.56.05 4.11.623 4.11 2.166 0 1.495-1.357 2.36-3.783 2.36-2.847 0-3.69-.722-3.69-1.924 0-1.734 2.524-2.458 3.363-2.602m.14-11.643c-1.308 0-1.96-1.327-1.96-4.332 0-3.055.652-4.384 1.96-4.384 1.262 0 1.913 1.33 1.913 4.384 0 3.005-.651 4.332-1.913 4.332M71.878 35.1c4.185 0 7.44-3.372 7.44-12.635 0-9.257-3.255-12.63-7.44-12.63-4.187 0-7.443 3.373-7.443 12.63 0 9.263 3.256 12.635 7.443 12.635m0-21.16c1.258 0 1.68 1.074 1.68 8.526 0 7.454-.422 8.53-1.68 8.53-1.26 0-1.679-1.076-1.679-8.53 0-7.452.42-8.526 1.68-8.526" clip-rule="evenodd"/><path d="M13.367 10.224H7.971V34.71h5.396V15.433c.374-.49 1.067-.928 1.812-.928.927 0 1.533.585 1.533 2.439v17.767h5.395V14.896c0-3.213-1.209-5.062-3.767-5.062-2.002 0-3.628 1.364-4.88 2.725h-.093zM0 26.91V0h5.42v26.91zm0 7.802v-5.655h5.42v5.655zM41.715 0v5.63h5.394V0zm0 10.224V34.71h5.394V10.224z"/></g></svg>