<svg xmlns="http://www.w3.org/2000/svg" xml:space="preserve" viewBox="0 0 325.6 88"><path d="M308.2 41.9 325.6 88c-5.1-.7-10.3-1.7-15.5-2.5L300.3 60l-10.1 23.4c-4.9-.8-9.8-1.1-14.8-1.7l17.7-40.3-16-41.4H292l9 23.1L310.6 0h15zM265.4 0h-13.5v79.9c4.4.3 9 .5 13.5 1zm-25.1 79c-12.3-.8-24.6-1.6-37.1-1.8V0h13.7v64.2c7.9.2 15.8.8 23.4 1.2zm-51.8-47.7V45h-18.8v31.3h-13.6V0h38.5v13.7h-24.9v17.5h18.8zM133 13.7V77c-4.6 0-9.3 0-13.8.2V13.7H105V0h42.3v13.7zm-42.8 32c-6 0-13.2 0-18.3.3v20.4c8.1-.6 16.1-1.2 24.3-1.5v13.2l-38 3V0h38v13.7H71.9v18.5c5.3 0 13.5-.3 18.3-.3zM14 38v48c-4.9.6-9.3 1.3-14 2V0h13.1L31 50V0h13.8v82.3c-4.9.8-9.8 1.1-15 1.8z" style="fill:#000"/></svg>