<svg preserveAspectRatio="xMidYMid meet" xmlns="http://www.w3.org/2000/svg" xml:space="preserve" viewBox="0.009 -0.02 186.991 49.949"><path d="M150.2 25.8c1.1.3 2.5-1.9.7-2.6-.9-.3-2.7-.3-3.5-.3-.4 0-1.1.1-1.8.2 0-1.5-.1-7.3.1-10.5.2-3 .5-5.3 1.7-6.6 1.5-1.7 2.4-.3 3.1.2 1 .7 2.2.1 2.3-1 .1-1.8-2.8-2.7-5.2-2-1.2.3-5.6 2.5-6.4 8.9-.4 3.3-.3 8.7-.1 11.3-1.3.2-3.5.5-4.9.7 0-.4-.1-.8-.1-1.2-.1-1.1-.5-8 .2-12.8.7-4.9 2.1-6.9 4.2-6.5.9.2 1.5.7 2.5.4.9-.2 1.8-1.9-.1-2.6-2.3-.8-10.4 1.4-11.2 9.6-.5 5.4-.4 4.1-.1 9.6 0 .7.2 2.9.2 4-1.1.1-2.4.1-3.3.1-.4 0-.6.1-.7.3-.2-4-1.2-6.5-3.2-7.9-2.3-1.5-6.7-1.7-9 2.2-4.1 6.9-2.8 13.8-1.9 16.6 1.2 3.5 3.5 4.1 4.4 4.3 7.1 1.2 9.4-6.6 9.6-10.6.1-1.1.1-2.2.1-3.3.3.6.8 1.1 1.3 1.1s1.5-.1 2.6-.2c.1 1.8.4 9.5.3 12.3-.1 2.9-1.4 5.2-2.8 5.3-1 .1-1.2-1-1.8-1-1 0-1 1.1-.5 1.5s3.8 2.9 7-1c1.9-2.3 2.6-6.9 2.7-11.9 0-1.7-.2-4.2-.3-5.9.7-.1 1.5-.2 2.2-.4.9-.2 1.8-.3 2.7-.4.2 2.1.8 8 .8 12.4-.1 6-.3 9.5-1.8 9.9-.9.3-1.4-.1-2-.2s-.8.4-.5.8c.3.6 1.9 1.5 3.3 1.3 4.1-.6 4.8-3.9 5.2-9.6.3-5.2-.3-12.5-.4-14.8.9-.1 2.3-.3 4.4.3m-26.7 5.8c-1.2 7.8-4.4 6.3-5.3 4.7-1.1-1.9-1.4-4.3-1.5-5.9-.1-2-.2-7.2 1.6-10.5.4-.7 1-1.3 1.7-1.5.6-.1 3.6.2 3.6 8.5.1 1.2 0 4-.1 4.7M11.4 25.8c0-.4.9-.2 2.2-.4 1.9-.2 2.9-.7 3.8-1.2 2-.9 3.7-2.2 5.2-3.8 2.9-3.1 4.4-7.5 3.8-11.7-.4-2.7-1.8-5.4-4.1-7C20.5.5 18.4.1 16.2 0c-2.1-.1-4.3.2-6.4.3-2 .1-3.9.4-5.9.1C3.7.5 2.3.3 2 .3 1 .2.5.1.1 1c-.4 1 .6 1.9 1.5 2 1.1.1 4.5.1 4.5.1s0 25.4.1 37.7c0 .4 0 1-.1 1.3 0 .1-1 .2-1.4.1-.5-.1-1.1-.1-1.5 0s-.5.7-.2 1c.2.2.5.3.8.2 3.1-.2 5.9-.3 9.1 0 .3 0 .7.1.9-.1.3-.3.6-1 .1-1.3-.3-.2-.7-.1-1.1-.1-.3 0-1.3-.2-1.3-.2s-.2-.6-.2-1.3c-.1-2.3-.1-4.6-.1-6.9 0-1.9 0-3.8.1-5.7 0-.3 0-1.2.1-2m-.2-17.3c0-1.4-.2-2.9 0-4.6 0-.5.2-.9.8-.9.9 0 1.6-.1 2.3 0 2.3.4 4.6 1.5 5.9 3.4 1.4 2 1.7 4.7 1.3 7.1s-1.4 4.8-3 6.6c-1.6 1.9-3.8 3.2-6.3 3.6-.2 0-.4.1-.6 0-.4-.2-.4-.7-.4-1.1q.15-7.05 0-14.1m54.5 32.9c0 .4-.2.7-.4 1-.7 1.1-1.7 2-2.9 2.6-1.2.5-2.6.6-3.8 0-1.5-.8-2.2-2.6-2.5-4.3-.6-3.3-.5-6.7-.3-10 .1-1.9.3-3.7.5-5.6.1-.9.3-4.9.3-4.9s-.5.1-.8.1c-.8.1-1.8.2-2.3.1s-.9-.7-.7-1.1c.1-.3.2-.6.7-.6 1-.1 3.1-.4 3.1-.4s.1-1.3 0-2c-.1-1.1-.2-2.3-.4-3.4-.2-.9-.4-2.1-1.2-2.7-.3-.2-1-.5-1-.9.1-1.8 4.6-.6 5.4.1.9.8 1.4 2.1 1.6 3.3.2 1.4.4 2.8.4 4.1v.9s3.2-.4 5.1-.5c1-.1 1.5 0 1.5.8 0 .4-.1.8-.4 1.1-.3.4-1.6.5-3 .5-.9-.1-1.7-.1-2.6 0-.5 0-.8.1-.8.1v1c-.2 6-1.2 12.1-.4 18 .1.8.3 1.6.8 2.3.5.6 1.5.9 2.1.5s.9-1.3 1.6-1.1c.2.3.4.7.4 1m15.2-25.3c.1.3-.2.6-.3.9-.3.6-.2 1.3-.2 2 0 .9.3 1.9-.2 2.6s-1.6.8-2.2.2c-.7-.7-.6-1.9-1.1-2.8-.3-.6-1-1.1-1.7-1.2-.7-.2-1.5 0-2.1.3-.7.3-1.3.8-1.5 1.5-.2.6.1 1.3.3 1.9.5 1.1 1.1 2.2 1.9 3.2 1.2 1.5 2.7 2.8 4 4.3s2.4 3.2 2.6 5.2c.1 1.5-.3 2.9-1.1 4.2-1 1.7-2.5 3-4.4 3.7-1.8.6-3.9.5-5.6-.5s-2.8-2.8-2.9-4.8q0-.75.3-1.5c.3-.4.7-.8 1.2-.7s1 .5 1.2 1 .3 1 .5 1.6c.3 1.2 1.1 2.2 2.2 2.7s2.5.3 3.4-.5c.7-.7.9-1.7.9-2.6-.1-.9-.4-1.8-.9-2.6-1-1.8-2.4-3.2-3.8-4.8-1.3-1.5-2.6-3.2-3.3-5.1-1.3-3.9 1.4-8.1 5.4-8.9 2.8-.6 5.4 1.4 5.4 1.4s.5-1.1 1.2-1.1c.5-.1.7.1.8.4M52.4 33.5c-.4-.1-.7.4-.9.8-.6 1-1.5 2-2.5 2.6s-2.3.7-3.4.3c-2.2-.9-3.1-3.8-3.4-5.9-.1-.9-.3-2.9 0-3.3.2-.3.9-.2 1.2-.3 2.4-.2 3.7-.3 5.7-.3.9 0 1.9-.1 2.6-.7.6-.6.8-1.5.9-2.3q.15-2.1-.3-4.2c-.2-1.2-.6-2.3-1.4-3.2-.1-.1-.1-.2-.2-.3-1.4-1.5-3.7-1.9-5.6-1.3-4.3 1.3-5.9 5.7-6.7 9.7-.1.7-.2.9-.7.9-.4 0-1.2.1-1.1.6.1.4 1 .7 1.1 1.1.2.7-.1 2-.1 2.9 0 1.1 0 2.2.2 3.4.3 1.6.9 3.1 1.9 4.3 1.1 1.3 2.7 2.3 4.4 2.5 1.4.2 2.9-.2 4.1-.9 1.3-.7 2.3-1.7 3.2-2.8.4-.5.9-1.1 1.2-1.7.2-.3.3-.6.3-1 .1-.5-.1-.9-.5-.9m-9-13.2c.4-1 1.2-3 2.7-2.8.2 0 .4.1.5.2.5.3.7.9.9 1.5.5 1.9.5 3.9.4 5.9 0 .5-.3.7-.7.7-1 0-2 .1-3 .1-1.1-.1-1.9 0-1.9-.5 0-1.5.6-3.7 1.1-5.1m-7.6 15.2c-.2 0-.4.2-.5.4-.7.9-1.4 1.9-2.3 2.6s-2.1 1.2-3.2 1c-1-.2-1.8-.8-2.4-1.6s-.9-1.7-1.2-2.6c-.3-1.1-.6-2.3-.7-3.5-.1-.8-.1-1.5.1-1.8.2-.2 1.1-.2 2-.2 2.4-.1 3.7-.2 5.9-.3.4 0 .9-.1 1.3-.3.5-.4.7-1.1.8-1.7.4-2.4.1-4.8-.8-7-.3-.8-.7-1.5-1.3-2.1l-.3-.3c-1.4-1.1-3.5-1-5.1-.3-1.9.9-3.6 2.5-4.6 4.2-.6 1-1 2-1.3 3.1-.2.6-.2 1.2-.4 1.8-.1.5-.1 1.4-.4 1.4s-.8 0-1.1.1-.6.3-.3.9c.3.5 1.2.7 1.2 1v3.6c.1 2.1.7 4.3 2 6s3.3 3 5.5 2.9c1.4 0 2.7-.5 3.9-1.3 1.8-1.2 3.2-2.9 3.9-4.9.1-.2.2-.5.1-.7-.4-.1-.6-.4-.8-.4m-9.9-8.8c.1-1.3.4-2.5.9-3.7.4-1.1.9-2.3 2-2.9.4-.2.9-.3 1.3-.1s.6.7.7 1.1c.5 1.8.6 3.7.4 5.6 0 .4-.1.8-.5 1-.2.1-.4.1-.6.2-1 .1-1.6.1-2.5.1-.6 0-1.3.1-1.5 0-.4-.1-.2-.9-.2-1.3m156.4 6.2c-.4 0-.8.4-1 .7-.7 1-1.4 1.9-2.5 2.5-1 .6-2.3.8-3.4.4-2.2-.9-3.1-3.8-3.4-5.9-.1-.9-.3-2.8 0-3.3.2-.3.9-.2 1.2-.3 2.4-.2 3.7-.3 5.7-.3.9 0 1.9-.1 2.6-.7.6-.6.8-1.5.9-2.3q.15-2.1-.3-4.2c-.2-1.2-.6-2.3-1.4-3.2-.1-.1-.1-.2-.2-.3-1.4-1.5-3.7-1.9-5.6-1.3-4.3 1.3-6 5.7-6.7 9.7-.1.7-.1.9-.7.9-.4 0-1.2.1-1 .6.1.4 1 .7 1.1 1.1.2.7-.1 2-.1 2.9 0 1.1 0 2.2.3 3.4.3 1.6.9 3.1 1.9 4.3 1.1 1.3 2.7 2.3 4.4 2.5 1.4.2 2.9-.2 4.1-.9 1.3-.7 2.3-1.7 3.2-2.8.4-.5.9-1.1 1.2-1.7.2-.3.3-.6.3-1s-.3-.7-.6-.8m-9-13.1c.4-1 1.2-3 2.7-2.8.2 0 .4.1.5.2.5.3.7.9.9 1.5.5 1.9.5 3.9.4 5.9 0 .5-.3.7-.7.7-1 0-2 .1-3 .1-1.1-.1-1.9 0-1.9-.5-.1-1.6.6-3.7 1.1-5.1M166 36.1c-.2 0-.4.2-.5.4-.7.9-1.4 1.9-2.3 2.6s-2.1 1.2-3.2 1c-1-.2-1.8-.8-2.4-1.6s-.9-1.7-1.2-2.6c-.3-1.1-.6-2.3-.7-3.5-.1-.8-.1-1.5.1-1.8.2-.2 1.1-.2 2-.3 2.4-.1 3.7-.2 5.9-.3.4 0 .9-.1 1.3-.3.5-.4.7-1 .8-1.7.4-2.4.1-4.8-.8-7-.3-.8-.7-1.5-1.3-2.1l-.3-.3c-1.4-1.1-3.5-1-5.1-.3-1.9.9-3.6 2.5-4.6 4.2-.6 1-1 2-1.3 3.1-.2.6-.2 1.2-.4 1.8-.1.5-.1 1.4-.4 1.4s-.8 0-1.1.1-.6.3-.3.9c.3.5 1.2.7 1.2 1v3.6c.1 2.1.7 4.3 2 6s3.3 3 5.5 2.9c1.4 0 2.7-.5 3.9-1.3 1.8-1.2 3.2-2.9 3.9-4.9.1-.2.2-.5.1-.7-.4-.1-.6-.3-.8-.3m-9.9-8.9c.1-1.3.4-2.5.9-3.7.4-1.1.9-2.3 2-2.9.4-.2.9-.3 1.3-.1s.5.7.7 1.1c.5 1.8.6 3.7.4 5.6 0 .4-.1.8-.5 1-.2.1-.4.1-.6.2-1 .1-1.6.1-2.5.1-.6 0-1.3.1-1.5 0-.4 0-.2-.8-.2-1.3m-42.2 11.6c.1.4-.9 1.9-1.7 2.9-.9 1-8.3 7.1-15.7 1.6s-8-16.4-6-25.1 5.8-13.8 13.1-15.5 10.2 2.7 10.2 2.7.1-.4.6-1.6c.6-1.5 1.8-1.4 1.9-.6.2.8-.3 1-.8 2.7s-.4 5.9-.7 7.4c-.2 1.4-1.1 2.4-2.1 2.3-.9-.1-2-.9-1.8-3.7.2-4.5-1.9-5.9-2.9-6.6s-8.5-2.9-12 7.6c-3.4 10.5-1.9 24 5.2 27.9s10.3-1.4 11-2.2 1.6-.3 1.7.2m-46.4-26c.3-1.1 1.4-1.6 2.4-1.6q.75 0 1.2.3c.2.2.3.5.3.8 0 1-.7 2.1-1.3 2.9-.4.5-1.1 1.2-1.7 1.4-1 .3-1.1-3.2-.9-3.8M187 15.5v2.2h-.3v-1.8l-.6 1.8h-.3l-.6-1.8v1.8h-.3v-2.2h.5l.6 1.7.5-1.7zm-4.1 0h1.8v.3h-.7v1.8h-.4v-1.8h-.7zm0 0" style="fill:#000"/></svg>