<svg preserveAspectRatio="xMidYMid meet" xmlns="http://www.w3.org/2000/svg" id="Layer_2" viewBox="0 0 716.2 177.54"><defs><style>.cls-2,.cls-3{stroke-width:0}.cls-2{fill:#000}.cls-3{fill:#fff}</style></defs><g id="Layer_1-2"><path d="M406.89 39.02c0-14.76-5.13-28.32-13.68-39.02-17.36 10.96-28.9 30.29-28.9 52.33q0 3.21.33 6.39c-1.9-.18-3.81-.18-5.71 0 .22-2.12.33-4.25.33-6.38 0-22.05-11.54-41.38-28.9-52.34-8.56 10.7-13.68 24.26-13.68 39.02 0 13.02 4.08 25.66 11.6 36.18-3.54 4.4-5.23 10.15-4.47 15.89l2.13 15.92c.79 5.91 4.98 10.85 10.69 12.59l9.43 2.89v10.62c0 .12.01.23.02.34-7.46-2.87-13.84-5.42-13.99-5.48a5.4 5.4 0 0 1-2.82-2.47l-3.42-6.27a11.2 11.2 0 0 0-12.89-5.45l-1.03.29c-5.55 1.55-9.01 7-8.06 12.68l.28 1.7a9.82 9.82 0 0 0-3.1 9.95l.11.41c1.22 4.71 5.79 7.86 10.62 7.33l5.4-.59c-1.42.82-2.68 1.95-3.66 3.38l-.61.88a11.21 11.21 0 0 0 1.92 14.9l1.3 1.12c-.6 3.6.83 7.37 3.98 9.63l.35.25a9.84 9.84 0 0 0 5.74 1.83c2.61 0 5.21-1.02 7.12-3l6.93-7.18c.55-.57 1.23-1.02 2.03-1.33.11-.04 9.98-3.97 19.52-7.59 9.54 3.62 19.42 7.55 19.59 7.62.74.28 1.41.73 1.96 1.3l6.93 7.18c3.38 3.5 8.9 4 12.86 1.16l.34-.25a9.86 9.86 0 0 0 3.99-9.64l1.3-1.12a11.21 11.21 0 0 0 1.92-14.9l-.61-.88c-.98-1.43-2.24-2.57-3.66-3.38l5.4.59c4.84.53 9.4-2.63 10.62-7.33l.11-.41c.97-3.76-.34-7.57-3.1-9.95l.28-1.7c.95-5.68-2.52-11.13-8.06-12.68l-1.03-.29c-5.07-1.42-10.37.82-12.89 5.45l-3.42 6.27c-.62 1.13-1.62 2.01-2.9 2.5-.1.04-6.46 2.58-13.91 5.45 0-.11.02-.23.02-.34v-10.63l9.43-2.88c5.7-1.74 9.9-6.68 10.69-12.59l2.13-15.92c.77-5.74-.93-11.49-4.47-15.89A62.26 62.26 0 0 0 406.92 39Z" class="cls-2"/><path d="M414.11 132.22a1.58 1.58 0 0 1-1.1-1.77l.78-4.69a5.24 5.24 0 0 0-3.76-5.91l-1.03-.29a5.24 5.24 0 0 0-6.01 2.54l-3.42 6.27c-1.3 2.38-3.41 4.23-5.94 5.2 0 0-15.78 6.3-27.02 10.37-1.54.56-3.17 1.13-4.83 1.72-1.67-.58-3.3-1.16-4.83-1.72-11.24-4.07-27.02-10.37-27.02-10.37-2.54-.97-4.64-2.82-5.94-5.2l-3.42-6.27a5.24 5.24 0 0 0-6.01-2.54l-1.03.29c-2.58.72-4.2 3.27-3.76 5.91l.78 4.69c.13.78-.34 1.54-1.1 1.77-1.98.6-3.14 2.66-2.62 4.67l.11.41a3.88 3.88 0 0 0 4.16 2.88l9.92-1.08c1.66-.18 3.34 0 4.93.54 0 0 15.67 5.12 26.86 9.11-7.39 2.5-13.6 4.52-13.6 4.52-2.57.88-5.37.81-7.9-.19l-6.64-2.63c-2.27-.9-4.86-.11-6.24 1.9l-.61.88c-1.52 2.2-1.13 5.2.9 6.95l3.61 3.1c.6.52.73 1.4.29 2.07-1.14 1.73-.7 4.05.98 5.26l.35.25a3.86 3.86 0 0 0 5.04-.46l6.93-7.18a11.5 11.5 0 0 1 4.13-2.74s11.43-4.55 21.73-8.43c10.3 3.88 21.73 8.43 21.73 8.43 1.56.6 2.97 1.53 4.13 2.74l6.93 7.18a3.87 3.87 0 0 0 5.04.46l.35-.25a3.865 3.865 0 0 0 .98-5.26c-.44-.66-.31-1.55.29-2.07l3.61-3.1a5.244 5.244 0 0 0 .9-6.95l-.61-.88a5.25 5.25 0 0 0-6.24-1.9l-6.64 2.63c-2.53 1-5.32 1.07-7.9.19 0 0-6.21-2.02-13.6-4.52 11.19-3.98 26.86-9.11 26.86-9.11 1.58-.54 3.26-.72 4.93-.54l9.92 1.08c1.91.21 3.68-1.02 4.16-2.88l.11-.41a3.86 3.86 0 0 0-2.62-4.67" class="cls-3"/><path d="M352.05 125.13v7.96c0 1.04.75 1.94 1.77 2.12l6.9 1.23v-11.32h-8.67Zm19.47 0v7.96c0 1.04-.75 1.94-1.77 2.12l-6.9 1.23v-11.32h8.67Zm15.65-49.3c8.55-9.87 13.73-22.73 13.73-36.81 0-11.38-3.39-21.97-9.2-30.83-13.02 10.31-21.38 26.24-21.38 44.14 0 5.04.66 9.91 1.91 14.56a24.87 24.87 0 0 0-20.87 0c1.24-4.64 1.91-9.52 1.91-14.56 0-17.9-8.36-33.83-21.38-44.14a56 56 0 0 0-9.2 30.83c0 14.08 5.18 26.94 13.73 36.81a14.91 14.91 0 0 0-6.65 14.46l2.13 15.92c.48 3.6 3.02 6.58 6.49 7.64l9.61 2.93a3.99 3.99 0 0 1 2.75 3.07l.24 1.28c.21 1.1 1.16 1.89 2.28 1.89h17.07c1.11 0 2.07-.79 2.28-1.89l.24-1.28a3.97 3.97 0 0 1 2.75-3.07l9.61-2.93a9.27 9.27 0 0 0 6.49-7.64l2.13-15.92c.76-5.71-1.84-11.34-6.65-14.46Zm-38.97 32.38c-5.61 0-10.16-4.08-10.16-9.12s4.55-9.12 10.16-9.12 10.16 4.08 10.16 9.12-4.55 9.12-10.16 9.12m15.98 9.01h-4.8c-2.38 0-3.74-2.71-2.31-4.62l3.94-5.27a.966.966 0 0 1 1.54 0l3.94 5.27c1.43 1.91.07 4.62-2.31 4.62m11.19-9.01c-5.61 0-10.16-4.08-10.16-9.12s4.55-9.12 10.16-9.12 10.16 4.08 10.16 9.12-4.55 9.12-10.16 9.12" class="cls-3"/><path d="M389.85 19.53a49.1 49.1 0 0 1 4.02 19.49c0 12.27-4.48 23.84-12.52 32.8a49.1 49.1 0 0 1-4.02-19.49c0-12.27 4.48-23.84 12.52-32.8M329.7 39.02c0-6.76 1.37-13.37 4.02-19.49 8.03 8.96 12.52 20.54 12.52 32.8 0 6.76-1.37 13.37-4.02 19.49-8.03-8.96-12.52-20.54-12.52-32.8" style="fill:#000;stroke-width:0"/><g id="Layer_2-2"><path d="M30.47 65.62H0v2.85l7.77 2.59v49.56L0 123.21v2.85h27.11v-2.85l-10.36-2.59V70.03h9.85c7.67 0 13.12 5.38 13.12 12.86 0 9.16-7.88 14.51-18.09 15.56v1.88h6.98c12.79 0 21.3-8.36 21.3-18.31 0-8.78-6.82-16.4-19.43-16.4Zm193.58 30.31q0-4.83-1.98-8.16a12.75 12.75 0 0 0-5.27-4.97 15.74 15.74 0 0 0-7.09-1.62c-2.96 0-5.88.73-8.51 2.12-2.72 1.4-5.02 3.5-6.67 6.07v-26.6l-16.66 4.14v2.76l8.46 2.33v48.78l-7.43 2.51v2.76h22.62v-2.76l-6.99-2.51V93.24a16.5 16.5 0 0 1 5.46-4.19c1.87-.91 3.92-1.4 6-1.43 2.65-.09 5.21.93 7.08 2.81 1.85 1.87 2.78 4.65 2.78 8.33v21.99l-7 2.51v2.76h22.62v-2.76l-7.43-2.51V95.91Zm42.43-11.88c-3.46-1.97-7.4-2.96-11.38-2.87-4.02-.08-7.98.92-11.48 2.89a20 20 0 0 0-7.81 8.18 25.2 25.2 0 0 0-2.81 11.94c-.07 4.08.84 8.12 2.68 11.76 1.7 3.36 4.32 6.18 7.55 8.11 3.25 1.96 7.07 2.94 11.44 2.94 4.02.08 7.99-.94 11.48-2.94 3.32-1.93 6.01-4.77 7.77-8.18 1.9-3.72 2.86-7.85 2.79-12.02.07-4.08-.83-8.11-2.63-11.76a19.2 19.2 0 0 0-7.6-8.05m-1.97 34.47c-1.96 3.25-4.81 4.88-8.55 4.88a10.3 10.3 0 0 1-7.43-3.02 18.8 18.8 0 0 1-4.66-7.82 33.4 33.4 0 0 1-1.53-10.4c0-5.06.98-9.22 2.94-12.47s4.8-4.89 8.53-4.92c2.76-.04 5.42 1.03 7.38 2.98 2.16 2.19 3.76 4.87 4.66 7.81 1.08 3.35 1.62 6.85 1.6 10.36q0 7.71-2.94 12.6M490.12 96.4c-2.79-1.59-6.23-2.58-10.32-2.98 4.84-.91 8.57-2.78 11.19-5.59s3.93-5.9 3.93-9.28c-.02-2.26-.7-4.46-1.96-6.33a13.76 13.76 0 0 0-5.68-4.79c-2.51-1.21-5.54-1.82-9.11-1.82h-29.96v2.85l7.77 2.59v49.56l-7.77 2.59v2.85h29.87c3.76.08 7.49-.73 10.88-2.37 2.87-1.38 5.31-3.52 7.06-6.18a14.7 14.7 0 0 0 2.42-8.03c0-2.58-.72-5.11-2.08-7.3a16.8 16.8 0 0 0-6.24-5.77m-25.17-26.38h7.16c2.43-.07 4.84.45 7.03 1.51 1.8.89 3.31 2.27 4.36 3.97.97 1.6 1.47 3.44 1.46 5.31 0 1.88-.5 3.73-1.46 5.35a11.07 11.07 0 0 1-4.36 4.09 14.1 14.1 0 0 1-6.95 1.6h-7.24zm20.03 48.27c-2.24 2.24-5.43 3.36-9.58 3.37h-10.45V96.28h7.77c2.95-.07 5.87.63 8.46 2.05 2.22 1.22 4.07 3.03 5.35 5.22a13.3 13.3 0 0 1 1.82 6.65c.04 3.05-1.18 5.98-3.37 8.1Zm59.9-37.1-16.23 3.95v2.7l8.12 2.25v24.78a18.2 18.2 0 0 1-5.53 4.23 13.55 13.55 0 0 1-5.95 1.47c-2.82 0-5.03-.96-6.61-2.89s-2.37-4.76-2.37-8.51V81.2l-16.66 4.06v2.68l8.46 2.33v21.99c0 4.72 1.27 8.36 3.8 10.92s5.76 3.84 9.67 3.84c3.07-.01 6.09-.82 8.76-2.35 2.81-1.57 5.17-3.83 6.86-6.56v9.24l16.15-4.06v-2.68l-8.46-2.41v-37Zm57.87 14.74c0-3.22-.66-5.94-1.99-8.16a12.73 12.73 0 0 0-5.26-4.97c-2.2-1.09-4.63-1.64-7.08-1.62-3.1 0-6.15.79-8.85 2.29-2.8 1.53-5.14 3.78-6.77 6.52v-8.81l-16.23 3.97v2.68l8.46 2.42v30.56l-7.42 2.51v2.76h22.62v-2.76l-6.97-2.53V93.25c1.51-1.77 3.38-3.2 5.48-4.19 1.87-.91 3.92-1.4 6-1.43 2.65-.09 5.21.93 7.08 2.81 1.84 1.87 2.76 4.65 2.76 8.33v21.99l-7 2.53v2.76h22.62v-2.76l-7.42-2.51-.02-24.86Zm41.94 27.37v2.76h22.62v-2.76l-7.43-2.51V95.93q0-4.83-1.98-8.16a12.73 12.73 0 0 0-5.26-4.97c-2.2-1.09-4.63-1.64-7.08-1.62-3.1 0-6.14.79-8.85 2.29-2.8 1.53-5.14 3.78-6.77 6.52v-8.81l-16.23 3.97v2.68l8.46 2.42v30.56l-7.42 2.51v2.76h22.62v-2.76l-6.99-2.51V93.25c1.51-1.77 3.38-3.2 5.48-4.19 1.87-.91 3.92-1.4 6-1.43 2.66-.1 5.23.92 7.1 2.81 1.84 1.87 2.76 4.65 2.76 8.33v21.99l-7.02 2.53ZM84.05 105.59c-2.47-1.9-5.23-3.39-8.18-4.4l-4.15-1.47c-2.47-.8-4.81-1.95-6.95-3.41a6.04 6.04 0 0 1-2.56-5.11c-.06-1.95.83-3.82 2.38-5.01 1.58-1.26 3.69-1.89 6.34-1.9.83 0 1.66.07 2.48.22l6.51 8.33h1.92l4.82-6.04c-2.31-1.81-4.9-3.23-7.67-4.19-2.73-.95-5.6-1.43-8.49-1.43-4.55 0-8.36 1.08-11.44 3.24s-4.62 5.25-4.6 9.28c-.07 2.22.54 4.41 1.77 6.26 1.15 1.67 2.67 3.04 4.45 4.02 2.17 1.16 4.42 2.16 6.73 3.02l3.89 1.47c2.34.81 4.54 1.96 6.55 3.41 1.49 1.18 2.24 2.87 2.24 5.05.01 1.88-.81 3.66-2.24 4.87-1.5 1.36-3.68 2.05-6.56 2.05-1.19.01-2.38-.14-3.53-.46l-7.05-9.03h-1.8l-5.15 6.47a24.6 24.6 0 0 0 8.24 4.66c2.99 1.02 6.13 1.53 9.28 1.53 4.77 0 8.66-1.22 11.65-3.67a11.73 11.73 0 0 0 4.49-9.54c0-3.68-1.12-6.42-3.37-8.22m38.59-23.65v2.68l7.78 2.24-11.61 27.97-12.58-27.96h.03l8.03-2.25v-2.76l-23.56.09v2.76l6.14 1.72 17.82 37.78c-.45 1.35-1.05 2.64-1.8 3.84l-.07.12c-.65 1.1-1.45 2.1-2.37 2.99-2.12 2.18-5.03 3.4-8.07 3.4-4.48 0-7.41-3.85-7.41-3.85h-2.41l-2.34 7.26q5.7 2.76 10.53 2.76c3.48.05 6.88-1.06 9.67-3.15q4.23-3.15 6.9-9.21l18.16-41.53 6.14-2.25v-2.65h-19Z" class="cls-2"/><path d="M697.15 81.94v2.68l7.78 2.24-11.61 27.97-12.58-27.96h.03l8.03-2.25v-2.76l-23.55.09v2.76l6.14 1.72 17.82 37.78v.06c-.45 1.32-1.04 2.58-1.77 3.76l-.08.12a14.5 14.5 0 0 1-2.25 2.87 13 13 0 0 1-1.65 1.42h-.03l-.42.29-.42.26-.05.03-.44.25h-.04l-.42.21-.06.03c-.15.07-.31.14-.47.2l-.07.03-.44.16h-.06l-.51.15-.1.03c-.15.05-.31.08-.47.12h-.06l-.51.1h-.12l-.51.07h-.04c-.18 0-.37.04-.56.05h-.72c-4.48 0-7.41-3.85-7.41-3.85h-2.36l-2.33 7.16-.04.11q5.7 2.76 10.53 2.76c3.48.05 6.88-1.06 9.67-3.15q4.23-3.15 6.9-9.21l18.16-41.53 6.14-2.25v-2.49h-19.06Zm-528.27 35.4a16.67 16.67 0 0 1-15.71-.69 16.03 16.03 0 0 1-5.83-6.31c-1.41-2.75-2.13-5.8-2.09-8.89-.06-3.02.61-6.01 1.94-8.72a15.83 15.83 0 0 1 5.27-6.04 14.4 14.4 0 0 1 7.21-2.51h.42c.8 0 1.6.08 2.39.24l7.32 8.4h2.12l4.6-5.95c-5.13-3.78-10.6-5.68-16.41-5.68-4.07-.08-8.08.98-11.57 3.07-3.31 2.01-6 4.89-7.77 8.33a24.94 24.94 0 0 0-2.76 11.76c-.05 4 .87 7.96 2.68 11.53 1.66 3.34 4.2 6.17 7.34 8.18a19.03 19.03 0 0 0 10.44 2.98c3.9.08 7.72-1.12 10.88-3.41 3.11-2.27 5.67-5.54 7.67-9.8l-2.07-1.47a19.8 19.8 0 0 1-6.08 4.98Z" class="cls-2"/></g></g></svg>