<svg preserveAspectRatio="xMidYMid meet" xmlns="http://www.w3.org/2000/svg" viewBox="0 0 198 35"><path fill-rule="evenodd" d="M51.61 9.038c.808.068 1.941.329 2.51.757l-1.274 3.224a4.5 4.5 0 0 0-1.87-.672 3.6 3.6 0 0 0-1.054.028 4.1 4.1 0 0 0-1.356.459c-.483.27-.89.627-1.246 1.048a4.74 4.74 0 0 0-1.068 2.463c-.028.203-.041 1.032-.041 1.032l-.004 9.164H42.65V9.257h3.557v2.073s.28-.689 1.024-1.223a5.5 5.5 0 0 1 2.26-.984c.64-.123 1.468-.14 2.119-.085m-17.177.219h3.557v17.284h-3.557l-.004-1.85-.04.055c-.11.086-.223.178-.33.267a7.5 7.5 0 0 1-2.33 1.323 7 7 0 0 1-2.232.432 9.6 9.6 0 0 1-1.857-.124 8.1 8.1 0 0 1-2.38-.809 8.4 8.4 0 0 1-2.732-2.237 8.9 8.9 0 0 1-1.359-2.343 9.5 9.5 0 0 1-.483-1.771 9 9 0 0 1-.13-2.029c.1-1.911.709-3.635 1.877-5.145a8.44 8.44 0 0 1 3.57-2.697 7.7 7.7 0 0 1 1.394-.424 9 9 0 0 1 2.013-.175c.98.027 1.914.236 2.811.634a7.1 7.1 0 0 1 2.044 1.308c.03.028.164.216.164.216zm-.425 6.472a5.2 5.2 0 0 0-2.42-2.642 4.9 4.9 0 0 0-2.12-.582 5.07 5.07 0 0 0-2.619.541 5 5 0 0 0-1.664 1.35 5.44 5.44 0 0 0-1.191 3.138c-.048.816.058 1.61.349 2.378.37.97.952 1.778 1.784 2.384A5.12 5.12 0 0 0 29.17 23.3c.256-.027.517-.048.773-.075.863-.106 1.637-.442 2.335-.953a5.17 5.17 0 0 0 1.86-2.5c.157-.436.266-.888.297-1.35.069-.929-.058-1.83-.428-2.693M194.272 9.26 188.9 21.813 183.747 9.26h-3.742l6.899 16.428L183.182 35h3.958L198 9.26zM173.15 4.193h-3.447V9.25H167.2v3.35h2.503v8.473q0 2.683 1.424 4.183 1.426 1.5 3.961 1.501 1.03 0 1.784-.175c.503-.116.917-.267 1.232-.455v-3.59c-.25.184-.513.287-.873.4a4.5 4.5 0 0 1-1.16.199c-.89 0-1.733-.291-2.154-.723-.424-.428-.767-1.12-.767-2.073V12.6h4.954V9.25h-4.954zM13.274 16.387c3.057-1.19 4.886-4.06 4.886-7.685C18.16 3.498 14.36 0 8.703 0H0v26.53h3.999V3.725h4.105c4.054 0 6.022 1.63 6.022 4.978 0 2.042-1.167 3.847-3.047 4.718 0 0-2.393 1.093-4.848.01l1.178 1.912 6.676 11.189h4.533l-6.022-9.88zM140.47 9.26h3.404v17.288h-3.404v-1.836s-.267.23-.373.318a7.5 7.5 0 0 1-2.335 1.323 7.2 7.2 0 0 1-1.39.36 8 8 0 0 1-.846.075 9.6 9.6 0 0 1-1.852-.127 8.2 8.2 0 0 1-2.386-.808 8.4 8.4 0 0 1-2.732-2.238 8.9 8.9 0 0 1-1.36-2.346 9.4 9.4 0 0 1-.482-1.772 9.2 9.2 0 0 1-.134-2.031c.103-1.912.709-3.642 1.876-5.15a8.46 8.46 0 0 1 3.575-2.696 8 8 0 0 1 1.397-.428 9 9 0 0 1 2.013-.175q1.47.043 2.814.634a7 7 0 0 1 2.044 1.312c.034.028.171.154.171.154.004-.592 0-1.857 0-1.857m-.42 6.479a5.2 5.2 0 0 0-2.428-2.645 4.9 4.9 0 0 0-2.12-.582 5.09 5.09 0 0 0-4.286 1.89 5.46 5.46 0 0 0-1.195 3.143c-.044.815.062 1.61.353 2.377.366.973.948 1.782 1.78 2.392a5.14 5.14 0 0 0 3.05 1c.257-.024.514-.045.774-.072.863-.11 1.637-.445 2.335-.956a5.16 5.16 0 0 0 1.863-2.5 5 5 0 0 0 .298-1.354 5.75 5.75 0 0 0-.425-2.693m-37.946-.956c.797 1.117 1.198 2.57 1.198 4.166q0 1.785-.637 3.21a6.6 6.6 0 0 1-1.832 2.412c-.797.661-1.756 1.165-2.876 1.521-1.123.353-2.38.374-3.773.374h-9.12V.006h8.446c1.195 0 2.297.032 3.307.36q1.511.49 2.616 1.405a6.2 6.2 0 0 1 1.702 2.224c.397.873.595 1.922.595 3.035q0 1.828-.804 3.193-.802 1.366-2.297 2.128 2.281.761 3.475 2.432m-13.185-3.875h4.707q1.833 0 2.993-.931 1.156-.93 1.157-2.642c0-1.137-.387-2.07-1.157-2.676q-1.16-.913-2.993-.911H88.92zm10.278 7.812c0-1.24-.442-2.31-1.325-3.005q-1.33-1.044-3.496-1.045H88.92v8.038h5.495q2.169.001 3.475-1.025 1.306-1.027 1.308-2.963m-27.15-1.408c.075.61.13 1.22.133 1.836.003.065 0 .127 0 .223l-13.452.006c.014.34.305 1.063.616 1.549a4.96 4.96 0 0 0 1.948 1.795c.384.199.791.357 1.216.442a5.8 5.8 0 0 0 1.287.127 4.85 4.85 0 0 0 2.441-.774c.37-.23.695-.518 1.014-.826.835.826 1.66 1.63 2.489 2.45-.031.04-.048.075-.076.099a8.5 8.5 0 0 1-2.31 1.668c-.778.38-1.593.63-2.445.764a8.3 8.3 0 0 1-1.952.08 8.24 8.24 0 0 1-3.595-1.097 8.4 8.4 0 0 1-2.273-1.919 8.8 8.8 0 0 1-1.92-4.183 9.4 9.4 0 0 1-.117-2.477c.14-1.644.67-3.145 1.623-4.484a8.4 8.4 0 0 1 3.714-2.957q.705-.29 1.438-.445a9 9 0 0 1 1.78-.182c.59 0 1.179.058 1.754.178q1.077.225 2.06.733c.891.456 1.644 1.086 2.305 1.837.644.73 1.13 1.565 1.507 2.47.417.99.68 2.021.814 3.087m-3.794-1.31a4.7 4.7 0 0 0-2.071-2.755 4.9 4.9 0 0 0-2.243-.728 5.2 5.2 0 0 0-2.092.24 4.6 4.6 0 0 0-1.41.757c-.49.38-.887.856-1.21 1.39-.208.347-.39.713-.52 1.141l-.013.018 9.57-.004c.04 0-.035.004-.011-.058m55.348 1.286c.08.613.134 1.223.137 1.836v.223l-13.448.006c.017.34.305 1.063.613 1.552.496.771 1.136 1.381 1.951 1.792.384.199.788.357 1.212.442.425.09.856.14 1.288.13a4.8 4.8 0 0 0 1.27-.222 5 5 0 0 0 1.174-.552 6.6 6.6 0 0 0 1.014-.826c.835.823 1.653 1.631 2.485 2.447-.027.04-.044.075-.072.102a8.5 8.5 0 0 1-2.314 1.665 8.6 8.6 0 0 1-2.445.771 8.8 8.8 0 0 1-1.948.076 8.26 8.26 0 0 1-3.598-1.1 8.4 8.4 0 0 1-2.274-1.919c-1.01-1.212-1.643-2.61-1.917-4.18a9.4 9.4 0 0 1-.12-2.48c.14-1.644.675-3.145 1.623-4.484a8.43 8.43 0 0 1 3.718-2.954 7.6 7.6 0 0 1 1.438-.445 8.7 8.7 0 0 1 3.533-.007q1.073.225 2.058.733c.89.46 1.64 1.086 2.305 1.837.647.733 1.133 1.569 1.51 2.47.414.99.674 2.021.807 3.087m-3.79-1.306a4.67 4.67 0 0 0-2.071-2.758 5 5 0 0 0-2.243-.73 5.25 5.25 0 0 0-2.088.24 4.7 4.7 0 0 0-1.41.758c-.494.383-.89.856-1.213 1.39-.209.35-.387.713-.517 1.141l-.013.018h9.57c.037-.004-.035 0-.015-.059m40.627 2.618q0 2.389-1.198 3.714c-.805.887-1.877 1.329-3.226 1.329-1.153 0-1.996-.333-2.773-1.151-.777-.82-1.027-1.933-1.027-3.173V9.254h-3.434v10.065c0 2.31.233 3.957 1.503 5.324 1.274 1.364 3.074 2.08 5.122 2.08 1.455 0 2.715-.404 3.098-.596.38-.192.737-.411 1.062-.651q.492-.359.65-.518l.223-.23v1.796h3.413V9.254h-3.413z"/></svg>