<svg xmlns="http://www.w3.org/2000/svg" viewBox="44 22.605 136.551 21.395" preserveAspectRatio="xMidYMid meet"><defs><clipPath id="5239d672f2"><path d="M 44 22.605469 L 63 22.605469 L 63 44 L 44 44 Z M 44 22.605469 " clip-rule="nonzero"/></clipPath><clipPath id="76ff59f7b1"><path d="M 120 22.605469 L 139 22.605469 L 139 44 L 120 44 Z M 120 22.605469 " clip-rule="nonzero"/></clipPath></defs><g clip-path="url(#5239d672f2)"><path fill="#121212" d="M 44.046875 38.953125 L 48.535156 36.347656 C 49.5 37.71875 50.34375 38.980469 53.230469 39.347656 C 54.019531 39.457031 56.527344 39.402344 56.703125 37.71875 C 56.875 35.757812 54.953125 35.644531 52.472656 35.167969 C 48.652344 34.46875 45.183594 33.039062 45.183594 29.308594 C 45.183594 25.578125 48.039062 22.636719 53.347656 22.636719 C 58.65625 22.636719 60.113281 24.148438 61.804688 26.503906 L 57.402344 29.113281 C 56.117188 27.625 54.835938 27.402344 54.019531 27.316406 C 53.085938 27.175781 51.101562 27.316406 50.984375 28.914062 C 50.839844 30.90625 52.792969 30.738281 55.300781 31.160156 C 59.269531 31.804688 62.125 33.121094 62.125 37.269531 C 62.125 41.421875 59.734375 43.945312 53.960938 43.945312 C 48.1875 43.945312 45.96875 42.683594 44.046875 38.953125 Z M 44.046875 38.953125 " fill-opacity="1" fill-rule="nonzero"/></g><path fill="#121212" d="M 71.542969 23.167969 L 71.542969 30.824219 L 77.816406 30.824219 L 77.816406 23.167969 L 83.707031 23.167969 L 83.707031 43.355469 L 77.816406 43.355469 L 77.816406 35.421875 L 71.542969 35.421875 L 71.542969 43.355469 L 65.625 43.355469 L 65.625 23.167969 Z M 71.542969 23.167969 " fill-opacity="1" fill-rule="nonzero"/><path fill="#121212" d="M 87.789062 23.167969 L 93.910156 23.167969 L 93.910156 43.355469 L 87.789062 43.355469 Z M 87.789062 23.167969 " fill-opacity="1" fill-rule="nonzero"/><path fill="#121212" d="M 102.894531 23.167969 L 111.03125 34.496094 L 110.914062 23.167969 L 116.335938 23.167969 L 116.335938 43.355469 L 111.144531 43.355469 L 103.507812 32.730469 L 103.5625 43.382812 L 97.996094 43.382812 L 97.996094 23.167969 Z M 102.894531 23.167969 " fill-opacity="1" fill-rule="nonzero"/><g clip-path="url(#76ff59f7b1)"><path fill="#121212" d="M 122.664062 24.878906 C 124.445312 23.28125 125.871094 22.691406 129.226562 22.605469 C 132.578125 22.691406 133.980469 23.28125 135.757812 24.878906 C 138.355469 27.121094 138.265625 30.066406 138.265625 33.289062 C 138.265625 36.515625 138.382812 39.375 135.757812 41.671875 C 133.980469 43.214844 132.550781 43.945312 129.226562 43.945312 C 125.902344 43.945312 124.445312 43.242188 122.664062 41.671875 C 120.070312 39.375 120.15625 36.515625 120.15625 33.289062 C 120.15625 30.066406 120.039062 27.121094 122.664062 24.878906 Z M 125.871094 33.261719 C 125.871094 38.085938 126.777344 39.347656 129.226562 39.347656 C 131.675781 39.347656 132.578125 38.085938 132.578125 33.261719 C 132.578125 28.4375 131.648438 27.066406 129.226562 27.066406 C 126.804688 27.066406 125.871094 28.328125 125.871094 33.261719 Z M 125.871094 33.261719 " fill-opacity="1" fill-rule="nonzero"/></g><path fill="#121212" d="M 142.027344 23.167969 L 147.890625 23.167969 L 147.890625 38.925781 L 156.609375 38.925781 L 156.609375 43.355469 L 142.027344 43.355469 Z M 142.027344 23.167969 " fill-opacity="1" fill-rule="nonzero"/><path fill="#121212" d="M 174.078125 40.886719 L 165.5625 40.886719 L 164.65625 43.328125 L 158.941406 43.328125 L 165.242188 27.457031 L 160.984375 27.457031 L 160.984375 23.167969 L 173.027344 23.167969 L 180.550781 43.355469 L 174.980469 43.355469 Z M 172.5625 36.90625 L 169.820312 29.503906 L 167.050781 36.90625 Z M 172.5625 36.90625 " fill-opacity="1" fill-rule="nonzero"/></svg>