<svg xmlns="http://www.w3.org/2000/svg" fill="none" viewBox="0 0 299 75"><g fill="#000" clip-path="url(#a)"><path d="M136.847 14.239q2.787 0 4.766-1.827t1.979-4.422-1.979-4.44q-1.979-1.843-4.766-1.843c-2.787 0-3.453.614-4.784 1.844q-1.996 1.844-1.996 4.439c0 2.595.665 3.204 1.996 4.422q1.997 1.827 4.784 1.826Zm116.296 3.467-.717.032-.003-.003-12.458.546-5.576 25.925a6.33 6.33 0 0 1-2.342 3.693 18.3 18.3 0 0 1-2.968 1.858c-1.139.567-2.135.931-3.017 1.132-1.09.177-2.822.11-4.252-1.538-.586-.674-.912-1.56-1.08-2.502.02-.47.094-1.136.227-2.022a23 23 0 0 1 .63-2.928l2.876-10.15q.472-1.6.629-3.473.156-1.874.157-2.578 0-3.434-2.537-5.757t-7.217-2.323c-1.13 0-2.308.144-3.527.404-.148.017-.32.05-.538.11l-.012.003-.019.004c-2.201.63-4.114.717-4.81.726h-6.193l2.762-11.814h-12.727l-2.843 11.814h-4.228c-.94 0-1.756.643-1.971 1.55-.297 1.26.667 2.467 1.971 2.467h3.14l-4.872 20.744a59 59 0 0 0-.629 3.315 18 18 0 0 0-.196 2.73q0 3.507 2.829 5.79 2.83 2.28 7.545 2.28 2.868 0 6.347-.857a42 42 0 0 0 6.167-2.049c.485-.203.843-.628.968-1.135.293-1.192-.769-2.275-1.975-2.005l-.364.08q-2.141.468-3.359.468-2.553 0-3.791-.858t-1.238-3.08q0-.468.256-2.027.255-1.56.53-2.652l4.791-20.744h8.967c1.349.117 2.328.592 2.834 1.072q.886.84.886 3.061 0 .897-.374 2.788a61 61 0 0 1-.649 2.983l-2.959 10.645q-.593 2.26-.729 3.51-.093.84-.123 1.662c-.068 1.845.327 3.706 1.325 5.263q2.514 3.921 8.314 3.75.125-.033.251-.069l-.086.048-.036.02s9.144.238 15.927-6.483c-.68 3.306-1.494 6.184-2.45 8.597a36 36 0 0 1-1.02 2.309c-.704 1.196-3.816 4.673-7.443 4.673-3.628 0-7.816-4.39-7.816-4.39l.006.104a13 13 0 0 0-.893-.668q-1.667-1.13-3.785-1.13-2.786 0-4.395 1.754t-1.608 4.016q0 1.287.569 2.632.57 1.345 2.14 2.437 1.728 1.209 4.809 1.891t7.755.683q4.279 0 8.44-1.15a23.7 23.7 0 0 0 7.735-3.764q3.73-2.73 6.556-7.35t4.401-11.717l6.856-31.432.229-.92Zm-84.954 20.187q5.462-1.482 8.646-4.543 3.183-3.06 3.183-7.311c0-1.16-.192-2.203-.567-3.136l-.115-.265c-.6-1.33-1.594-2.42-2.993-3.267q-3.675-2.222-10.708-2.222-5.975 0-10.926 2.066-4.951 2.067-8.174 5.381-3.418 3.47-5.148 7.799a23.9 23.9 0 0 0-1.729 8.929q0 3.626 1.14 6.629a14.7 14.7 0 0 0 1.975 3.588c.046.062.098.12.145.183-.166.048-.323.096-.51.147q-1.49.41-2.668.41-2.512 0-3.532-.819t-1.02-3.08q0-.897.315-2.652.315-1.754.71-3.12l3.232-11.346q.471-1.56.648-3.431.177-1.872.177-2.613-.001-3.586-2.537-5.83-2.538-2.24-7.22-2.24-2.597 0-5.508.915a83 83 0 0 0-6.098 2.203l-.004.016a10 10 0 0 0-.784-.6q-3.673-2.535-10.629-2.535-6.014 0-10.886 2.066-4.875 2.067-7.978 5.342-3.341 3.47-4.951 7.701a24 24 0 0 0-1.129 3.959c.109-.938.17-1.886.17-2.848q0-7.68-5.129-11.99-2.645-2.218-6.287-3.294l1.402-2.555c.765-1.394-.252-3.094-1.852-3.094-.777 0-1.492.422-1.863 1.1l-2.03 3.707a32 32 0 0 0-3.38-.173q-5.854 0-10.885 1.892-5.03 1.89-8.488 5.127a23.6 23.6 0 0 0-5.443 7.76q-1.945 4.445-1.945 9.63c0 .53.023 1.045.06 1.551-.274-2.159-1.136-3.953-2.607-5.372q-2.712-2.612-8.057-4.484a89 89 0 0 1-3.87-1.384q-1.554-.604-2.575-1.306a4.7 4.7 0 0 1-1.434-1.56c-.324-.572-.492-1.35-.52-2.314.02-.35.127-1.218.631-2.064.723-1.082 1.876-2.142 3.629-2.142 3.58 0 4.977 2.961 4.977 2.961l.01-.033c.138.27.258.543.41.808a9.8 9.8 0 0 0 2.456 2.78q1.512 1.174 3.793 1.174 2.632 0 4.263-1.54t1.631-3.685-1.159-3.646q-1.16-1.5-3.242-2.437a18.6 18.6 0 0 0-4.755-1.287q-2.555-.35-5.541-.35-4.992 0-8.724 1.072-3.735 1.072-6.17 2.866-2.476 1.871-3.635 4.075a9.94 9.94 0 0 0-1.16 4.698q0 4.211 2.77 7.038t7.526 4.426q1.73.585 3.498 1.248t2.908 1.364q1.14.742 1.827 1.716.678.964.686 2.38l-.002-.002s-.028 4.423-4.458 4.423c-2.96 0-4.874-1.579-5.824-2.629a67 67 0 0 0-.708-.915 45 45 0 0 0-1.62-1.946 10 10 0 0 0-.992-1.043c-.46-.445-.879-.783-1.195-.91-.021-.01-.038-.01-.058-.015-.944-.539-2.05-.824-3.336-.824q-2.83 0-4.54 1.696T0 49.825q0 1.248.707 2.67.708 1.425 2.633 2.672 1.886 1.248 5.129 2.047 3.24.799 8.193.8 5.462-.001 9-.956 3.537-.956 6.248-2.827 2.436-1.716 3.753-4.29t1.317-5.38c0-.254-.016-.498-.03-.743.457 4.002 2.125 7.248 5.014 9.73q1.71 1.468 3.777 2.448l-1.47 2.685c-.642 1.174.215 2.602 1.56 2.602a2.98 2.98 0 0 0 2.615-1.541l1.301-2.372q2.648.603 5.735.604 6.249 0 11.26-1.93 5.009-1.93 8.743-5.478a23.1 23.1 0 0 0 5.344-7.799 24 24 0 0 0 1.41-4.568 26 26 0 0 0-.176 3.008q0 7.838 5.05 12.322t14.088 4.484q5.895 0 11.201-3.003 4.967-2.81 8.109-7.332a.83.83 0 0 0-.156-1.105 2.92 2.92 0 0 0-4.036.276q-2.1 2.335-4.134 3.502-2.887 1.657-7.212 1.657c-2.882 0-5.01-1.065-6.542-3.197q-2.3-3.197-2.3-9.398 0-8.148 3.027-13.667c1.115-2.032 2.396-3.482 3.83-4.392a4.7 4.7 0 0 1 1.909-.526c.172-.008.35-.025.507-.017.068.001.125.017.191.022q.277.027.524.085c2.977.866 2.217 6.875 2.217 6.875h.002a9.3 9.3 0 0 0-.22 1.99q0 1.636 1.709 3.138 1.71 1.501 4.775 1.501 2.319 0 3.478-.662 1.159-.663 2.142-1.911.785-1.013 1.178-2.495t.393-2.69q-.001-2.115-.835-3.797a8.8 8.8 0 0 1 1.929-.22q2.562 0 3.468.858.905.858.905 3.041 0 1.209-.294 2.67a54 54 0 0 1-.73 3.1l-3.244 11.387a33 33 0 0 0-.629 3.216q-.198 1.425-.197 2.789 0 3.51 2.614 5.79t7.329 2.28q3.064 0 5.383-.799 2.319-.798 6.21-2.32l1.54-.556c1.36 1.087 2.969 1.973 4.849 2.642q3.557 1.268 8.272 1.268 6.091 0 11.613-2.983 4.995-2.7 8.367-7.043c.399-.514.299-1.257-.203-1.673-1.042-.864-2.602-.788-3.511.211q-2.245 2.469-4.653 3.787-3.243 1.774-7.88 1.774-2.671 0-4.401-1.034a7.1 7.1 0 0 1-2.672-2.788q-.788-1.52-1.179-3.665-.393-2.144-.472-3.86 4.401-.468 7.447-1.014t7.369-1.833zm-117.54 8.071q0-3.548.589-8.052.59-4.503 1.965-8.364 1.572-4.64 4.087-7.038 2.514-2.397 5.54-2.398c.867 0 1.638.148 2.324.426L50.67 46.992a25 25 0 0 1-.023-1.027ZM68.176 37.6q-.708 4.543-2.083 8.286-1.377 3.822-3.734 6.434c-2.357 2.612-3.432 2.612-5.58 2.612q-2.97 0-4.54-2.103l15.904-28.988c.489 1.33.74 3.03.74 5.123q0 4.094-.708 8.636Zm87.258-.32c-.645.095-1.292.185-1.942.262q.746-7.487 3.438-12.38 2.691-4.894 5.718-4.894.548.001 1.035.115 1.435.337 2.344 1.66 1.219 1.775 1.219 5.088c0 2.21-.432 4.03-1.297 5.38q-1.297 2.029-4.244 3.315-1.336.585-3.616 1.014-1.32.247-2.655.44m138.98-12.418q-3.989-3.9-9.884-3.9c-.271 0-.52.023-.786.03-.098-.002-.18-.013-.281-.013-2.033 0-3.97.332-5.722.807l-.037.01c-4.479 1.22-7.682 3.386-7.89 3.53a61 61 0 0 1 2.75-6.3 27 27 0 0 1 4.225-6.073q2.554-2.765 6.229-5.06 3.383-2.115 7.85-3.372l1.566-.339 1.67-.273c.865-.142 1.597-.797 1.717-1.66.184-1.322-.941-2.409-2.206-2.23q-17.87 2.532-29.008 13.067-11.79 11.152-11.79 26.788 0 8.19 5.246 13.14 5.247 4.952 14.05 4.952 11.082 0 18.686-6.824T298.403 35q0-6.24-3.989-10.139ZM280.51 48.979q-3.236 5.713-7.626 5.712-2.823 0-4.529-2.885c-1.706-2.885-1.705-4.601-1.705-8.033s.236-6.18.707-8.48l.191-.927c.538-2.61 1.979-4.99 4.182-6.51a9 9 0 0 1 2.402-1.192 11.2 11.2 0 0 1 2.949-.398q2.901 0 4.782 2.379t1.882 6.473q0 8.15-3.235 13.861"/></g><defs><clipPath id="a"><path fill="#fff" d="M0 0h298.4v74.039H0z"/></clipPath></defs></svg>