<svg xmlns="http://www.w3.org/2000/svg" fill="none" viewBox="0 0 84 33"><path fill="#000" d="M28.102 27.199c0-2.262 2.331-4.852 3.144-5.74.109-.118.115-.206.038-.346-1.266-2.5-4.692-8.016-6.284-10.673C23.557 8.033 19.334.75 19.334.75h11.063c0 .67-.787 1.134-.787 2.233s1.722 3.203 2.462 4.178c.802 1.059 1.913 2.38 2.988 4.229.343-.344 1.129-1.273 1.129-2.916 0-1.824-1.472-2.86-1.928-3.215-.569-.444-2.383-1.448-2.383-2.748 0-1.762 1.47-1.757 1.84-1.762h9.094s-2.416 4.785-4.897 9.586c-.795 1.537-1.701 3.187-2.422 4.58-1.375 2.656-3.017 5.311-3.017 6.445s.935 2.382 1.97 3.18a12 12 0 0 0 2.498 1.474l-4.363 6.343c-.046 0-4.481-.493-4.481-5.16zM61.437 1.081c-.276 2.405-1.085 9.36-1.422 11.754-.759-2.208-2.874-5.315-4.985-5.315-1.435 0-1.67 1.436-1.67 2.126v11.538h-9.19V.75h4.648c2.077.008 4.313 1.28 4.545 4.621-.075-2.705 2.385-4.9 5.526-4.9 1.555 0 2.55.61 2.55.61zm10.298 1.136c2.13-1.272 4-1.742 5.472-1.742 4.422 0 6.26 2.893 6.26 6.85.018 3.753.045 13.86.045 13.86h-9.557V6.974c0-.66-.02-2.152-1.115-2.152-1.176 0-1.155 1.879-1.155 2.489v13.872h-8.286V.75h8.336zM10.192 21.999c-4.664 0-9.448-1.962-9.448-5.248 0-2.111 1.485-3.078 2.183-3.44 1.525 1.895 3.4 3.53 5.353 4.637 2.525 1.431 5.247 2.057 6.315 2.057.762 0 1.29-.278 1.29-.819 0-1.23-2.9-2.26-6.6-3.598-2.848-1.032-8.374-3.6-8.374-8.722s6.244-6.73 9.6-6.73c5.116 0 9.025 1.997 9.025 4.616 0 1.298-.897 2.315-2.144 2.315-1.357 0-3.483-1.583-7.127-3.057-1.991-.807-3.528-1.243-4.401-1.183-.533.036-.845.342-.845.764 0 1.457 3.849 1.675 7.612 3.136 6.236 2.42 7.554 4.802 7.554 7.825 0 3.336-2.456 7.449-9.995 7.449z"/></svg>